<svg width="45" height="50" viewBox="0 0 45 50" fill="none" xmlns="http://www.w3.org/2000/svg">
<path d="M20.8709 25.0843C21.1369 24.9261 21.3 24.6393 21.3 24.3297V7.84804C21.3 7.16609 20.5565 6.74445 19.9713 7.09448L0.427367 18.7831C0.162287 18.9416 0 19.2278 0 19.5366V35.9558C0 36.6368 0.741662 37.0586 1.32695 36.7104L20.8709 25.0843Z" fill="white"/>
<path d="M40.8004 9.74255C40.8004 9.4297 40.6339 9.14048 40.3634 8.98332L26.2195 0.766352C25.6342 0.426282 24.9004 0.8486 24.9004 1.52558L24.9004 24.4905C24.9004 24.8038 25.0674 25.0934 25.3386 25.2504L39.4825 33.4372C40.0678 33.776 40.8004 33.3536 40.8004 32.6772L40.8004 9.74255Z" fill="white"/>
<path d="M23.8476 28.4462C23.5776 28.2937 23.2473 28.2949 22.9784 28.4492L8.84046 36.5678C8.24955 36.9071 8.25354 37.7609 8.84759 38.0947L28.7115 49.2559C28.9812 49.4074 29.3107 49.4058 29.5789 49.2518L43.6632 41.1641C44.2533 40.8253 44.2503 39.9729 43.6578 39.6382L23.8476 28.4462Z" fill="white"/>
</svg>
