<svg width="967" height="260" viewBox="0 0 967 260" fill="none" xmlns="http://www.w3.org/2000/svg">
<path d="M328.418 110.319V56.3931H363.671V60.1612H333.024V81.5138H360.74V85.1981H333.024V106.634H363.671V110.319H328.418ZM410.426 110.319L390.079 56.3931H394.851L413.441 106.216L432.03 56.3931H436.803L416.455 110.319H410.426ZM465.719 110.319V56.3931H500.971V60.1612H470.324V81.5138H498.041V85.1981H470.324V106.634H500.971V110.319H465.719ZM530.28 110.319V56.3931H534.634L568.045 103.453V56.3931H572.65V110.319H568.212L534.886 63.3431V110.319H530.28ZM602.816 110.319V106.048H607.254V110.319H602.816ZM635.899 110.319V56.3931H661.187C665.43 56.3931 668.891 57.2025 671.57 58.8214C674.306 60.4403 676.343 62.6453 677.683 65.4365C679.023 68.2277 679.693 71.4097 679.693 74.9824C679.693 78.6109 678.911 81.8208 677.348 84.612C675.841 87.4032 673.664 89.5803 670.817 91.1434C668.026 92.6506 664.704 93.4042 660.852 93.4042H647.203V110.319H635.899ZM647.203 84.4445H658.508C661.745 84.4445 664.174 83.6072 665.793 81.9325C667.467 80.2019 668.305 77.8852 668.305 74.9824C668.305 71.8563 667.523 69.4837 665.96 67.8649C664.397 66.1901 662.052 65.3528 658.926 65.3528H647.203V84.4445ZM705.203 110.319V56.3931H716.508V101.61H743.052V110.319H705.203ZM768.538 110.319V56.3931H779.843V110.319H768.538ZM834.943 111.156C825.899 111.156 818.977 108.728 814.176 103.871C809.375 98.9587 806.975 92.2878 806.975 83.8584C806.975 74.9266 809.292 67.9765 813.925 63.0082C818.614 58.0399 825.592 55.5557 834.859 55.5557C838.097 55.5557 841 55.8069 843.567 56.3093C846.191 56.7559 848.647 57.3979 850.936 58.2353V68.1161C846.191 66.1622 841.111 65.1853 835.696 65.1853C829.556 65.1853 825.146 66.7205 822.466 69.7908C819.786 72.8611 818.447 77.5503 818.447 83.8584C818.447 95.693 824.252 101.61 835.864 101.61C838.487 101.61 841.083 101.387 843.651 100.94C846.219 100.438 848.675 99.7123 851.02 98.7633V108.728C848.731 109.454 846.275 110.04 843.651 110.486C841.083 110.933 838.18 111.156 834.943 111.156Z" fill="#0C1F38"/>
<path d="M326.686 180.065V141.015H342.209C346.494 141.015 349.627 142.147 351.608 144.41C353.629 146.634 354.64 149.565 354.64 153.203C354.64 156.882 353.508 159.792 351.244 161.935C348.981 164.037 345.888 165.088 341.967 165.088H330.021V180.065H326.686ZM330.021 162.42H341.664C344.857 162.42 347.262 161.591 348.879 159.934C350.496 158.276 351.305 156.033 351.305 153.203C351.305 150.171 350.517 147.847 348.94 146.23C347.404 144.572 345.079 143.743 341.967 143.743H330.021V162.42ZM366.664 180.672C365.047 180.672 363.753 180.227 362.783 179.338C361.813 178.448 361.328 176.852 361.328 174.547V139.196H364.663V174.426C364.663 175.72 364.865 176.609 365.269 177.094C365.673 177.579 366.32 177.822 367.21 177.822C368.099 177.822 368.988 177.701 369.878 177.458V180.247C369.352 180.409 368.806 180.51 368.24 180.551C367.674 180.631 367.149 180.672 366.664 180.672ZM385.043 180.672C383.224 180.672 381.546 180.389 380.01 179.823C378.514 179.257 377.301 178.368 376.372 177.155C375.482 175.902 375.038 174.325 375.038 172.425C375.038 169.878 375.846 167.817 377.463 166.24C379.08 164.623 381.829 163.815 385.71 163.815H396.443V161.086C396.443 159.267 396.2 157.811 395.715 156.72C395.23 155.588 394.341 154.78 393.047 154.294C391.794 153.809 389.934 153.567 387.468 153.567C385.811 153.567 384.214 153.708 382.678 153.991C381.142 154.274 379.686 154.658 378.312 155.143V152.293C379.565 151.808 381.02 151.424 382.678 151.141C384.376 150.858 386.175 150.717 388.075 150.717C392.036 150.717 394.947 151.525 396.807 153.142C398.706 154.719 399.656 157.347 399.656 161.025V180.065H396.928L396.625 176.488C395.291 177.903 393.714 178.954 391.895 179.641C390.076 180.328 387.792 180.672 385.043 180.672ZM385.892 177.883C388.196 177.883 390.217 177.519 391.955 176.791C393.694 176.023 395.189 174.891 396.443 173.395V166.483H385.831C383.001 166.483 381.041 166.988 379.949 167.999C378.858 169.009 378.312 170.485 378.312 172.425C378.312 174.406 378.979 175.821 380.313 176.67C381.687 177.478 383.547 177.883 385.892 177.883ZM418.469 180.672C415.923 180.672 413.962 179.964 412.587 178.55C411.213 177.135 410.526 175.154 410.526 172.607V154.113H406.039V151.323H410.526V143.804L413.861 142.713V151.323H422.168L421.986 154.113H413.861V172.486C413.861 174.345 414.285 175.72 415.134 176.609C416.024 177.498 417.459 177.943 419.44 177.943C419.965 177.943 420.511 177.903 421.077 177.822C421.683 177.701 422.33 177.519 423.017 177.276V179.944C421.683 180.429 420.167 180.672 418.469 180.672ZM438.16 180.672C436.341 180.672 434.663 180.389 433.127 179.823C431.631 179.257 430.419 178.368 429.489 177.155C428.599 175.902 428.155 174.325 428.155 172.425C428.155 169.878 428.963 167.817 430.58 166.24C432.197 164.623 434.946 163.815 438.827 163.815H449.56V161.086C449.56 159.267 449.317 157.811 448.832 156.72C448.347 155.588 447.458 154.78 446.164 154.294C444.911 153.809 443.052 153.567 440.586 153.567C438.928 153.567 437.331 153.708 435.795 153.991C434.259 154.274 432.804 154.658 431.429 155.143V152.293C432.682 151.808 434.138 151.424 435.795 151.141C437.493 150.858 439.292 150.717 441.192 150.717C445.154 150.717 448.064 151.525 449.924 153.142C451.824 154.719 452.774 157.347 452.774 161.025V180.065H450.045L449.742 176.488C448.408 177.903 446.831 178.954 445.012 179.641C443.193 180.328 440.909 180.672 438.16 180.672ZM439.009 177.883C441.313 177.883 443.334 177.519 445.073 176.791C446.811 176.023 448.307 174.891 449.56 173.395V166.483H438.948C436.119 166.483 434.158 166.988 433.066 167.999C431.975 169.009 431.429 170.485 431.429 172.425C431.429 174.406 432.096 175.821 433.43 176.67C434.805 177.478 436.664 177.883 439.009 177.883ZM463.582 180.065V154.113H459.156V151.323H463.582V146.472C463.582 143.885 464.29 141.864 465.705 140.408C467.16 138.953 469.262 138.225 472.011 138.225C472.941 138.225 473.79 138.306 474.558 138.468C475.326 138.589 476.033 138.771 476.68 139.014V141.682C476.074 141.48 475.447 141.318 474.8 141.197C474.194 141.075 473.547 141.015 472.86 141.015C470.637 141.015 469.08 141.439 468.191 142.288C467.342 143.137 466.918 144.512 466.918 146.412V151.323H474.922L474.74 154.113H466.918V180.065H463.582ZM492.785 180.672C487.934 180.672 484.437 179.398 482.295 176.852C480.152 174.305 479.081 170.586 479.081 165.694C479.081 160.843 480.173 157.144 482.356 154.598C484.538 152.01 488.015 150.717 492.785 150.717C497.596 150.717 501.093 152.01 503.276 154.598C505.459 157.144 506.55 160.843 506.55 165.694C506.55 170.586 505.459 174.305 503.276 176.852C501.133 179.398 497.636 180.672 492.785 180.672ZM492.785 177.822C496.626 177.822 499.314 176.831 500.85 174.851C502.427 172.87 503.215 169.818 503.215 165.694C503.215 161.611 502.427 158.58 500.85 156.599C499.273 154.618 496.585 153.627 492.785 153.627C488.985 153.627 486.297 154.618 484.72 156.599C483.144 158.58 482.356 161.611 482.356 165.694C482.356 169.818 483.144 172.87 484.72 174.851C486.297 176.831 488.985 177.822 492.785 177.822ZM514.462 180.065V151.323H517.372L517.736 155.325C519.232 154.274 520.93 153.344 522.83 152.536C524.77 151.727 526.67 151.121 528.53 150.717V153.446C527.357 153.728 526.084 154.113 524.71 154.598C523.376 155.083 522.082 155.628 520.829 156.235C519.616 156.801 518.605 157.387 517.797 157.993V180.065H514.462ZM534.773 180.065V151.323H537.684L537.987 154.84C539.563 153.547 541.241 152.536 543.02 151.808C544.839 151.081 546.739 150.717 548.72 150.717C550.943 150.717 552.661 151.081 553.874 151.808C555.087 152.536 555.976 153.547 556.542 154.84C557.917 153.668 559.513 152.698 561.332 151.93C563.152 151.121 565.335 150.717 567.881 150.717C571.115 150.717 573.521 151.546 575.097 153.203C576.714 154.82 577.523 157.367 577.523 160.843V180.065H574.248V161.147C574.248 158.276 573.622 156.295 572.369 155.204C571.156 154.072 569.236 153.506 566.608 153.506C564.789 153.506 563.071 153.83 561.454 154.476C559.837 155.083 558.462 155.992 557.33 157.205C557.452 157.771 557.553 158.438 557.634 159.206C557.714 159.934 557.755 160.621 557.755 161.268V180.065H554.541V161.328C554.541 158.58 554.076 156.599 553.146 155.386C552.217 154.133 550.418 153.506 547.75 153.506C545.971 153.506 544.233 153.91 542.535 154.719C540.837 155.527 539.341 156.518 538.048 157.69V180.065H534.773ZM594.196 180.672C592.377 180.672 590.699 180.389 589.163 179.823C587.667 179.257 586.454 178.368 585.525 177.155C584.635 175.902 584.191 174.325 584.191 172.425C584.191 169.878 584.999 167.817 586.616 166.24C588.233 164.623 590.982 163.815 594.863 163.815H605.596V161.086C605.596 159.267 605.353 157.811 604.868 156.72C604.383 155.588 603.494 154.78 602.2 154.294C600.947 153.809 599.087 153.567 596.621 153.567C594.964 153.567 593.367 153.708 591.831 153.991C590.295 154.274 588.839 154.658 587.465 155.143V152.293C588.718 151.808 590.173 151.424 591.831 151.141C593.529 150.858 595.328 150.717 597.228 150.717C601.189 150.717 604.1 151.525 605.959 153.142C607.859 154.719 608.809 157.347 608.809 161.025V180.065H606.081L605.778 176.488C604.444 177.903 602.867 178.954 601.048 179.641C599.229 180.328 596.945 180.672 594.196 180.672ZM595.045 177.883C597.349 177.883 599.37 177.519 601.108 176.791C602.847 176.023 604.342 174.891 605.596 173.395V166.483H594.984C592.154 166.483 590.194 166.988 589.102 167.999C588.011 169.009 587.465 170.485 587.465 172.425C587.465 174.406 588.132 175.821 589.466 176.67C590.84 177.478 592.7 177.883 595.045 177.883ZM631.888 193.163V151.323H634.678L634.981 154.598C636.396 153.264 637.912 152.293 639.529 151.687C641.186 151.04 643.126 150.717 645.35 150.717C649.392 150.717 652.546 151.909 654.809 154.294C657.073 156.639 658.205 160.419 658.205 165.634C658.205 170.849 657.033 174.669 654.688 177.094C652.343 179.479 649.15 180.672 645.107 180.672C643.086 180.672 641.287 180.429 639.711 179.944C638.134 179.459 636.638 178.711 635.223 177.701V193.163H631.888ZM644.258 177.943C647.856 177.943 650.524 176.973 652.263 175.033C654.041 173.052 654.931 169.919 654.931 165.634C654.931 161.551 654.122 158.519 652.505 156.538C650.929 154.517 648.281 153.506 644.562 153.506C640.762 153.506 637.649 154.8 635.223 157.387V174.729C636.355 175.7 637.649 176.488 639.104 177.094C640.559 177.66 642.278 177.943 644.258 177.943ZM674.316 180.672C672.497 180.672 670.819 180.389 669.283 179.823C667.787 179.257 666.574 178.368 665.645 177.155C664.755 175.902 664.311 174.325 664.311 172.425C664.311 169.878 665.119 167.817 666.736 166.24C668.353 164.623 671.102 163.815 674.983 163.815H685.716V161.086C685.716 159.267 685.473 157.811 684.988 156.72C684.503 155.588 683.614 154.78 682.32 154.294C681.067 153.809 679.207 153.567 676.741 153.567C675.084 153.567 673.487 153.708 671.951 153.991C670.415 154.274 668.959 154.658 667.585 155.143V152.293C668.838 151.808 670.293 151.424 671.951 151.141C673.649 150.858 675.448 150.717 677.348 150.717C681.309 150.717 684.22 151.525 686.08 153.142C687.979 154.719 688.929 157.347 688.929 161.025V180.065H686.201L685.898 176.488C684.564 177.903 682.987 178.954 681.168 179.641C679.349 180.328 677.065 180.672 674.316 180.672ZM675.165 177.883C677.469 177.883 679.49 177.519 681.228 176.791C682.967 176.023 684.462 174.891 685.716 173.395V166.483H675.104C672.274 166.483 670.314 166.988 669.222 167.999C668.131 169.009 667.585 170.485 667.585 172.425C667.585 174.406 668.252 175.821 669.586 176.67C670.96 177.478 672.82 177.883 675.165 177.883ZM697.737 180.065V151.323H700.648L701.012 155.325C702.507 154.274 704.205 153.344 706.105 152.536C708.046 151.727 709.946 151.121 711.805 150.717V153.446C710.633 153.728 709.359 154.113 707.985 154.598C706.651 155.083 705.357 155.628 704.104 156.235C702.891 156.801 701.881 157.387 701.072 157.993V180.065H697.737ZM725.005 180.672C723.186 180.672 721.508 180.389 719.972 179.823C718.477 179.257 717.264 178.368 716.334 177.155C715.445 175.902 715 174.325 715 172.425C715 169.878 715.808 167.817 717.425 166.24C719.042 164.623 721.791 163.815 725.672 163.815H736.405V161.086C736.405 159.267 736.163 157.811 735.677 156.72C735.192 155.588 734.303 154.78 733.009 154.294C731.756 153.809 729.897 153.567 727.431 153.567C725.773 153.567 724.176 153.708 722.64 153.991C721.104 154.274 719.649 154.658 718.274 155.143V152.293C719.528 151.808 720.983 151.424 722.64 151.141C724.338 150.858 726.137 150.717 728.037 150.717C731.999 150.717 734.909 151.525 736.769 153.142C738.669 154.719 739.619 157.347 739.619 161.025V180.065H736.89L736.587 176.488C735.253 177.903 733.676 178.954 731.857 179.641C730.038 180.328 727.754 180.672 725.005 180.672ZM725.854 177.883C728.158 177.883 730.18 177.519 731.918 176.791C733.656 176.023 735.152 174.891 736.405 173.395V166.483H725.793C722.964 166.483 721.003 166.988 719.912 167.999C718.82 169.009 718.274 170.485 718.274 172.425C718.274 174.406 718.941 175.821 720.275 176.67C721.65 177.478 723.509 177.883 725.854 177.883ZM776.341 180.672C771.167 180.672 767.387 179.459 765.002 177.034C762.657 174.568 761.485 170.727 761.485 165.512C761.485 160.904 762.516 157.286 764.577 154.658C766.68 152.031 770.075 150.717 774.765 150.717C777.554 150.717 779.818 151.242 781.556 152.293C783.294 153.304 784.568 154.678 785.376 156.417C786.225 158.155 786.65 160.095 786.65 162.238V167.453H764.82C764.982 171.172 765.952 173.86 767.731 175.518C769.509 177.135 772.602 177.943 777.008 177.943C779.676 177.943 782.263 177.438 784.77 176.427V179.156C782.304 180.167 779.494 180.672 776.341 180.672ZM764.82 164.845H783.618V162.117C783.618 159.449 782.931 157.347 781.556 155.81C780.182 154.274 777.938 153.506 774.825 153.506C771.025 153.506 768.398 154.497 766.942 156.477C765.527 158.418 764.82 161.207 764.82 164.845ZM801.837 180.065L790.62 151.323H794.076L803.839 177.276L813.662 151.323H817.058L805.84 180.065H801.837ZM835.262 180.672C830.087 180.672 826.308 179.459 823.922 177.034C821.578 174.568 820.405 170.727 820.405 165.512C820.405 160.904 821.436 157.286 823.498 154.658C825.6 152.031 828.996 150.717 833.685 150.717C836.474 150.717 838.738 151.242 840.477 152.293C842.215 153.304 843.488 154.678 844.297 156.417C845.146 158.155 845.57 160.095 845.57 162.238V167.453H823.741C823.902 171.172 824.872 173.86 826.651 175.518C828.43 177.135 831.522 177.943 835.929 177.943C838.597 177.943 841.184 177.438 843.69 176.427V179.156C841.224 180.167 838.415 180.672 835.262 180.672ZM823.741 164.845H842.538V162.117C842.538 159.449 841.851 157.347 840.477 155.81C839.102 154.274 836.859 153.506 833.746 153.506C829.946 153.506 827.318 154.497 825.863 156.477C824.448 158.418 823.741 161.207 823.741 164.845ZM854.069 180.065V151.323H856.98L857.283 154.84C858.738 153.627 860.395 152.637 862.255 151.869C864.115 151.101 866.338 150.717 868.925 150.717C872.523 150.717 875.13 151.546 876.747 153.203C878.364 154.86 879.173 157.488 879.173 161.086V180.065H875.838V161.147C875.838 158.317 875.252 156.336 874.079 155.204C872.947 154.072 870.764 153.506 867.53 153.506C865.509 153.506 863.629 153.89 861.891 154.658C860.193 155.426 858.698 156.437 857.404 157.69V180.065H854.069ZM897.946 180.672C895.399 180.672 893.439 179.964 892.064 178.55C890.69 177.135 890.002 175.154 890.002 172.607V154.113H885.515V151.323H890.002V143.804L893.338 142.713V151.323H901.645L901.463 154.113H893.338V172.486C893.338 174.345 893.762 175.72 894.611 176.609C895.5 177.498 896.935 177.943 898.916 177.943C899.442 177.943 899.987 177.903 900.553 177.822C901.16 177.701 901.807 177.519 902.494 177.276V179.944C901.16 180.429 899.644 180.672 897.946 180.672ZM921.336 180.672C916.485 180.672 912.988 179.398 910.845 176.852C908.703 174.305 907.631 170.586 907.631 165.694C907.631 160.843 908.723 157.144 910.906 154.598C913.089 152.01 916.565 150.717 921.336 150.717C926.146 150.717 929.643 152.01 931.826 154.598C934.009 157.144 935.1 160.843 935.1 165.694C935.1 170.586 934.009 174.305 931.826 176.852C929.683 179.398 926.187 180.672 921.336 180.672ZM921.336 177.822C925.176 177.822 927.864 176.831 929.4 174.851C930.977 172.87 931.765 169.818 931.765 165.694C931.765 161.611 930.977 158.58 929.4 156.599C927.824 154.618 925.136 153.627 921.336 153.627C917.536 153.627 914.847 154.618 913.271 156.599C911.694 158.58 910.906 161.611 910.906 165.694C910.906 169.818 911.694 172.87 913.271 174.851C914.847 176.831 917.536 177.822 921.336 177.822ZM951.145 180.672C949.447 180.672 947.81 180.551 946.233 180.308C944.697 180.106 943.383 179.823 942.292 179.459V176.488C943.626 176.933 945 177.276 946.415 177.519C947.83 177.721 949.265 177.822 950.72 177.822C953.55 177.822 955.571 177.458 956.784 176.73C957.997 175.962 958.603 174.649 958.603 172.789C958.603 171.495 958.3 170.525 957.694 169.878C957.128 169.191 956.218 168.605 954.965 168.12C953.712 167.635 952.115 167.069 950.175 166.422C948.558 165.856 947.082 165.31 945.748 164.785C944.454 164.219 943.424 163.451 942.655 162.481C941.887 161.47 941.503 160.075 941.503 158.297C941.503 155.79 942.332 153.91 943.99 152.657C945.647 151.364 948.335 150.717 952.054 150.717C953.51 150.717 954.884 150.818 956.178 151.02C957.512 151.182 958.684 151.424 959.695 151.748V154.719C957.35 153.991 954.965 153.627 952.539 153.627C949.669 153.627 947.648 153.991 946.476 154.719C945.344 155.406 944.778 156.578 944.778 158.236C944.778 159.368 945.02 160.257 945.505 160.904C946.031 161.51 946.839 162.036 947.931 162.481C949.063 162.925 950.518 163.431 952.297 163.996C954.439 164.684 956.218 165.371 957.633 166.058C959.088 166.745 960.16 167.615 960.847 168.666C961.574 169.676 961.938 171.051 961.938 172.789C961.938 175.619 960.968 177.64 959.028 178.853C957.128 180.065 954.5 180.672 951.145 180.672ZM339.723 247.672C334.751 247.672 331.133 246.358 328.869 243.73C326.605 241.103 325.473 237.424 325.473 232.694C325.473 227.641 326.787 223.882 329.415 221.416C332.083 218.95 335.681 217.717 340.208 217.717C342.068 217.717 343.564 217.858 344.695 218.141C345.827 218.384 346.939 218.768 348.031 219.293V222.022C345.888 221.011 343.462 220.506 340.754 220.506C336.954 220.506 334.003 221.476 331.901 223.417C329.799 225.357 328.748 228.45 328.748 232.694C328.748 236.858 329.637 239.951 331.416 241.972C333.235 243.953 336.267 244.943 340.511 244.943C341.805 244.943 343.099 244.802 344.392 244.519C345.726 244.236 346.959 243.852 348.091 243.367V246.156C346.959 246.641 345.686 247.005 344.271 247.247C342.897 247.53 341.381 247.672 339.723 247.672ZM357.441 210.865V207.226H361.261V210.865H357.441ZM357.866 247.065V221.113H353.378L353.742 218.323H361.201V247.065H357.866ZM383.972 247.672C378.798 247.672 375.018 246.459 372.633 244.034C370.288 241.568 369.116 237.727 369.116 232.512C369.116 227.904 370.147 224.286 372.208 221.658C374.311 219.031 377.706 217.717 382.396 217.717C385.185 217.717 387.449 218.242 389.187 219.293C390.925 220.304 392.199 221.678 393.007 223.417C393.856 225.155 394.281 227.095 394.281 229.238V234.453H372.451C372.613 238.172 373.583 240.86 375.362 242.518C377.14 244.135 380.233 244.943 384.639 244.943C387.307 244.943 389.894 244.438 392.401 243.427V246.156C389.935 247.167 387.125 247.672 383.972 247.672ZM372.451 231.845H391.249V229.117C391.249 226.449 390.561 224.347 389.187 222.81C387.813 221.274 385.569 220.506 382.456 220.506C378.656 220.506 376.029 221.497 374.573 223.477C373.158 225.418 372.451 228.207 372.451 231.845ZM402.779 247.065V218.323H405.69L405.993 221.84C407.448 220.627 409.106 219.637 410.965 218.869C412.825 218.101 415.048 217.717 417.636 217.717C421.233 217.717 423.841 218.546 425.458 220.203C427.075 221.86 427.883 224.488 427.883 228.086V247.065H424.548V228.147C424.548 225.317 423.962 223.336 422.79 222.204C421.658 221.072 419.475 220.506 416.241 220.506C414.22 220.506 412.34 220.89 410.602 221.658C408.904 222.426 407.408 223.437 406.114 224.69V247.065H402.779ZM446.656 247.672C444.11 247.672 442.149 246.964 440.775 245.55C439.4 244.135 438.713 242.154 438.713 239.607V221.113H434.226V218.323H438.713V210.804L442.048 209.713V218.323H450.355L450.173 221.113H442.048V239.486C442.048 241.345 442.472 242.72 443.321 243.609C444.211 244.498 445.646 244.943 447.627 244.943C448.152 244.943 448.698 244.903 449.264 244.822C449.87 244.701 450.517 244.519 451.204 244.276V246.944C449.87 247.429 448.354 247.672 446.656 247.672ZM459.887 215.413L463.95 205.832H467.103L462.616 215.413H459.887ZM460.312 247.065V221.113H455.764L456.007 218.323H463.647V247.065H460.312ZM474.715 247.065V221.113H470.289V218.323H474.715V214.139C474.715 211.269 475.625 209.025 477.444 207.408C479.303 205.751 481.709 204.922 484.66 204.922C487.368 204.922 489.43 205.246 490.845 205.892V208.56C490.279 208.278 489.491 208.075 488.48 207.954C487.51 207.792 486.519 207.712 485.509 207.712C480.536 207.712 478.05 209.834 478.05 214.079V218.323H493.574V247.065H490.238V221.113H478.05V247.065H474.715ZM515.715 247.672C510.743 247.672 507.124 246.358 504.861 243.73C502.597 241.103 501.465 237.424 501.465 232.694C501.465 227.641 502.779 223.882 505.406 221.416C508.074 218.95 511.672 217.717 516.2 217.717C518.059 217.717 519.555 217.858 520.687 218.141C521.819 218.384 522.931 218.768 524.022 219.293V222.022C521.88 221.011 519.454 220.506 516.746 220.506C512.946 220.506 509.995 221.476 507.893 223.417C505.79 225.357 504.739 228.45 504.739 232.694C504.739 236.858 505.629 239.951 507.407 241.972C509.227 243.953 512.258 244.943 516.503 244.943C517.797 244.943 519.09 244.802 520.384 244.519C521.718 244.236 522.951 243.852 524.083 243.367V246.156C522.951 246.641 521.678 247.005 520.263 247.247C518.888 247.53 517.372 247.672 515.715 247.672ZM542.468 247.672C537.617 247.672 534.12 246.398 531.978 243.852C529.835 241.305 528.764 237.586 528.764 232.694C528.764 227.843 529.855 224.144 532.038 221.598C534.221 219.01 537.698 217.717 542.468 217.717C547.279 217.717 550.775 219.01 552.958 221.598C555.141 224.144 556.233 227.843 556.233 232.694C556.233 237.586 555.141 241.305 552.958 243.852C550.816 246.398 547.319 247.672 542.468 247.672ZM542.468 244.822C546.308 244.822 548.997 243.831 550.533 241.851C552.109 239.87 552.898 236.818 552.898 232.694C552.898 228.611 552.109 225.58 550.533 223.599C548.956 221.618 546.268 220.627 542.468 220.627C538.668 220.627 535.98 221.618 534.403 223.599C532.827 225.58 532.038 228.611 532.038 232.694C532.038 236.818 532.827 239.87 534.403 241.851C535.98 243.831 538.668 244.822 542.468 244.822ZM572.277 247.672C570.579 247.672 568.942 247.551 567.365 247.308C565.829 247.106 564.515 246.823 563.424 246.459V243.488C564.758 243.933 566.132 244.276 567.547 244.519C568.962 244.721 570.397 244.822 571.853 244.822C574.682 244.822 576.704 244.458 577.916 243.73C579.129 242.962 579.736 241.649 579.736 239.789C579.736 238.495 579.432 237.525 578.826 236.878C578.26 236.191 577.35 235.605 576.097 235.12C574.844 234.635 573.247 234.069 571.307 233.422C569.69 232.856 568.214 232.31 566.88 231.785C565.587 231.219 564.556 230.451 563.788 229.481C563.02 228.47 562.636 227.075 562.636 225.297C562.636 222.79 563.464 220.91 565.122 219.657C566.779 218.364 569.468 217.717 573.187 217.717C574.642 217.717 576.016 217.818 577.31 218.02C578.644 218.182 579.816 218.424 580.827 218.748V221.719C578.482 220.991 576.097 220.627 573.672 220.627C570.802 220.627 568.78 220.991 567.608 221.719C566.476 222.406 565.91 223.578 565.91 225.236C565.91 226.368 566.153 227.257 566.638 227.904C567.163 228.51 567.972 229.036 569.063 229.481C570.195 229.925 571.65 230.431 573.429 230.996C575.572 231.684 577.35 232.371 578.765 233.058C580.221 233.745 581.292 234.615 581.979 235.666C582.707 236.676 583.071 238.051 583.071 239.789C583.071 242.619 582.1 244.64 580.16 245.853C578.26 247.065 575.632 247.672 572.277 247.672ZM618.884 247.672C613.71 247.672 609.93 246.459 607.545 244.034C605.2 241.568 604.028 237.727 604.028 232.512C604.028 227.904 605.059 224.286 607.121 221.658C609.223 219.031 612.618 217.717 617.308 217.717C620.097 217.717 622.361 218.242 624.099 219.293C625.837 220.304 627.111 221.678 627.919 223.417C628.768 225.155 629.193 227.095 629.193 229.238V234.453H607.363C607.525 238.172 608.495 240.86 610.274 242.518C612.052 244.135 615.145 244.943 619.551 244.943C622.219 244.943 624.807 244.438 627.313 243.427V246.156C624.847 247.167 622.037 247.672 618.884 247.672ZM607.363 231.845H626.161V229.117C626.161 226.449 625.474 224.347 624.099 222.81C622.725 221.274 620.481 220.506 617.368 220.506C613.568 220.506 610.941 221.497 609.485 223.477C608.071 225.418 607.363 228.207 607.363 231.845ZM660.755 247.672C658.936 247.672 657.258 247.389 655.722 246.823C654.227 246.257 653.014 245.368 652.084 244.155C651.195 242.902 650.75 241.325 650.75 239.425C650.75 236.878 651.558 234.817 653.175 233.24C654.792 231.623 657.541 230.815 661.422 230.815H672.155V228.086C672.155 226.267 671.913 224.811 671.427 223.72C670.942 222.588 670.053 221.78 668.759 221.294C667.506 220.809 665.647 220.567 663.181 220.567C661.523 220.567 659.926 220.708 658.39 220.991C656.854 221.274 655.399 221.658 654.024 222.143V219.293C655.278 218.808 656.733 218.424 658.39 218.141C660.088 217.858 661.887 217.717 663.787 217.717C667.749 217.717 670.659 218.525 672.519 220.142C674.419 221.719 675.369 224.347 675.369 228.025V247.065H672.64L672.337 243.488C671.003 244.903 669.426 245.954 667.607 246.641C665.788 247.328 663.504 247.672 660.755 247.672ZM661.604 244.883C663.908 244.883 665.93 244.519 667.668 243.791C669.406 243.023 670.902 241.891 672.155 240.395V233.483H661.543C658.714 233.483 656.753 233.988 655.662 234.999C654.57 236.009 654.024 237.485 654.024 239.425C654.024 241.406 654.691 242.821 656.025 243.67C657.4 244.478 659.259 244.883 661.604 244.883ZM697.214 247.672C692.241 247.672 688.623 246.358 686.359 243.73C684.096 241.103 682.964 237.424 682.964 232.694C682.964 227.641 684.278 223.882 686.905 221.416C689.573 218.95 693.171 217.717 697.699 217.717C699.558 217.717 701.054 217.858 702.186 218.141C703.318 218.384 704.43 218.768 705.521 219.293V222.022C703.378 221.011 700.953 220.506 698.244 220.506C694.445 220.506 691.493 221.476 689.391 223.417C687.289 225.357 686.238 228.45 686.238 232.694C686.238 236.858 687.128 239.951 688.906 241.972C690.725 243.953 693.757 244.943 698.002 244.943C699.296 244.943 700.589 244.802 701.883 244.519C703.217 244.236 704.45 243.852 705.582 243.367V246.156C704.45 246.641 703.176 247.005 701.761 247.247C700.387 247.53 698.871 247.672 697.214 247.672ZM720.268 247.672C718.449 247.672 716.771 247.389 715.235 246.823C713.739 246.257 712.526 245.368 711.597 244.155C710.707 242.902 710.263 241.325 710.263 239.425C710.263 236.878 711.071 234.817 712.688 233.24C714.305 231.623 717.054 230.815 720.935 230.815H731.668V228.086C731.668 226.267 731.425 224.811 730.94 223.72C730.455 222.588 729.566 221.78 728.272 221.294C727.019 220.809 725.159 220.567 722.693 220.567C721.036 220.567 719.439 220.708 717.903 220.991C716.367 221.274 714.911 221.658 713.537 222.143V219.293C714.79 218.808 716.246 218.424 717.903 218.141C719.601 217.858 721.4 217.717 723.3 217.717C727.261 217.717 730.172 218.525 732.032 220.142C733.932 221.719 734.882 224.347 734.882 228.025V247.065H732.153L731.85 243.488C730.516 244.903 728.939 245.954 727.12 246.641C725.301 247.328 723.017 247.672 720.268 247.672ZM721.117 244.883C723.421 244.883 725.442 244.519 727.181 243.791C728.919 243.023 730.415 241.891 731.668 240.395V233.483H721.056C718.226 233.483 716.266 233.988 715.174 234.999C714.083 236.009 713.537 237.485 713.537 239.425C713.537 241.406 714.204 242.821 715.538 243.67C716.913 244.478 718.772 244.883 721.117 244.883ZM755.332 247.672C752.825 247.672 750.602 247.167 748.661 246.156C746.721 245.145 745.205 243.569 744.114 241.426C743.022 239.243 742.476 236.413 742.476 232.937C742.476 227.722 743.649 223.882 745.993 221.416C748.379 218.95 751.592 217.717 755.635 217.717C757.616 217.717 759.374 217.959 760.91 218.444C762.487 218.889 764.003 219.657 765.458 220.749V206.196H768.793V247.065H766.004L765.701 243.852C764.326 245.145 762.81 246.115 761.153 246.762C759.495 247.369 757.555 247.672 755.332 247.672ZM756.12 244.943C759.92 244.943 763.033 243.65 765.458 241.062V223.659C764.326 222.689 763.053 221.921 761.638 221.355C760.223 220.789 758.525 220.506 756.544 220.506C752.987 220.506 750.299 221.497 748.48 223.477C746.66 225.458 745.751 228.611 745.751 232.937C745.751 237.02 746.6 240.052 748.298 242.033C749.996 243.973 752.603 244.943 756.12 244.943ZM781.205 215.473L787.572 207.287H790.483L796.85 215.473H793.818L789.027 209.228L784.237 215.473H781.205ZM790.968 247.672C785.793 247.672 782.014 246.459 779.628 244.034C777.284 241.568 776.111 237.727 776.111 232.512C776.111 227.904 777.142 224.286 779.204 221.658C781.306 219.031 784.702 217.717 789.391 217.717C792.18 217.717 794.444 218.242 796.183 219.293C797.921 220.304 799.194 221.678 800.003 223.417C800.852 225.155 801.276 227.095 801.276 229.238V234.453H779.447C779.608 238.172 780.578 240.86 782.357 242.518C784.136 244.135 787.228 244.943 791.635 244.943C794.303 244.943 796.89 244.438 799.396 243.427V246.156C796.93 247.167 794.121 247.672 790.968 247.672ZM779.447 231.845H798.244V229.117C798.244 226.449 797.557 224.347 796.183 222.81C794.808 221.274 792.564 220.506 789.452 220.506C785.652 220.506 783.024 221.497 781.569 223.477C780.154 225.418 779.447 228.207 779.447 231.845ZM809.183 247.065V218.323H812.093L812.397 221.84C813.973 220.547 815.651 219.536 817.429 218.808C819.249 218.081 821.149 217.717 823.129 217.717C825.353 217.717 827.071 218.081 828.284 218.808C829.496 219.536 830.386 220.547 830.952 221.84C832.326 220.668 833.923 219.698 835.742 218.93C837.561 218.121 839.744 217.717 842.291 217.717C845.525 217.717 847.93 218.546 849.507 220.203C851.124 221.82 851.932 224.367 851.932 227.843V247.065H848.658V228.147C848.658 225.276 848.031 223.295 846.778 222.204C845.565 221.072 843.645 220.506 841.018 220.506C839.198 220.506 837.48 220.83 835.863 221.476C834.246 222.083 832.872 222.992 831.74 224.205C831.861 224.771 831.962 225.438 832.043 226.206C832.124 226.934 832.164 227.621 832.164 228.268V247.065H828.951V228.328C828.951 225.58 828.486 223.599 827.556 222.386C826.626 221.133 824.827 220.506 822.159 220.506C820.38 220.506 818.642 220.91 816.944 221.719C815.246 222.527 813.751 223.518 812.457 224.69V247.065H809.183ZM862.322 210.865V207.226H866.142V210.865H862.322ZM862.746 247.065V221.113H858.259L858.623 218.323H866.081V247.065H862.746ZM888.246 247.672C883.274 247.672 879.656 246.358 877.392 243.73C875.128 241.103 873.996 237.424 873.996 232.694C873.996 227.641 875.31 223.882 877.938 221.416C880.606 218.95 884.204 217.717 888.731 217.717C890.591 217.717 892.087 217.858 893.219 218.141C894.351 218.384 895.462 218.768 896.554 219.293V222.022C894.411 221.011 891.986 220.506 889.277 220.506C885.477 220.506 882.526 221.476 880.424 223.417C878.322 225.357 877.271 228.45 877.271 232.694C877.271 236.858 878.16 239.951 879.939 241.972C881.758 243.953 884.79 244.943 889.035 244.943C890.328 244.943 891.622 244.802 892.915 244.519C894.249 244.236 895.482 243.852 896.614 243.367V246.156C895.482 246.641 894.209 247.005 892.794 247.247C891.42 247.53 889.904 247.672 888.246 247.672ZM914.999 247.672C910.148 247.672 906.652 246.398 904.509 243.852C902.367 241.305 901.295 237.586 901.295 232.694C901.295 227.843 902.387 224.144 904.57 221.598C906.753 219.01 910.229 217.717 914.999 217.717C919.81 217.717 923.307 219.01 925.49 221.598C927.673 224.144 928.764 227.843 928.764 232.694C928.764 237.586 927.673 241.305 925.49 243.852C923.347 246.398 919.85 247.672 914.999 247.672ZM914.999 244.822C918.84 244.822 921.528 243.831 923.064 241.851C924.641 239.87 925.429 236.818 925.429 232.694C925.429 228.611 924.641 225.58 923.064 223.599C921.488 221.618 918.799 220.627 914.999 220.627C911.199 220.627 908.511 221.618 906.935 223.599C905.358 225.58 904.57 228.611 904.57 232.694C904.57 236.818 905.358 239.87 906.935 241.851C908.511 243.831 911.199 244.822 914.999 244.822ZM944.809 247.672C943.111 247.672 941.473 247.551 939.897 247.308C938.361 247.106 937.047 246.823 935.955 246.459V243.488C937.289 243.933 938.664 244.276 940.079 244.519C941.494 244.721 942.929 244.822 944.384 244.822C947.214 244.822 949.235 244.458 950.448 243.73C951.661 242.962 952.267 241.649 952.267 239.789C952.267 238.495 951.964 237.525 951.357 236.878C950.792 236.191 949.882 235.605 948.629 235.12C947.376 234.635 945.779 234.069 943.838 233.422C942.221 232.856 940.746 232.31 939.412 231.785C938.118 231.219 937.087 230.451 936.319 229.481C935.551 228.47 935.167 227.075 935.167 225.297C935.167 222.79 935.996 220.91 937.653 219.657C939.311 218.364 941.999 217.717 945.718 217.717C947.173 217.717 948.548 217.818 949.842 218.02C951.176 218.182 952.348 218.424 953.359 218.748V221.719C951.014 220.991 948.629 220.627 946.203 220.627C943.333 220.627 941.312 220.991 940.139 221.719C939.008 222.406 938.442 223.578 938.442 225.236C938.442 226.368 938.684 227.257 939.169 227.904C939.695 228.51 940.503 229.036 941.595 229.481C942.727 229.925 944.182 230.431 945.961 230.996C948.103 231.684 949.882 232.371 951.297 233.058C952.752 233.745 953.823 234.615 954.511 235.666C955.238 236.676 955.602 238.051 955.602 239.789C955.602 242.619 954.632 244.64 952.691 245.853C950.792 247.065 948.164 247.672 944.809 247.672Z" fill="#505C68"/>
<path d="M-1.86997e-06 46.184C-1.9758e-06 43.3491 1.6273 40.7659 4.18429 39.5417L76.2343 5.04803C81.1225 2.70785 86.7786 6.27092 86.7786 11.6903V171.667C86.7786 174.451 85.2088 176.997 82.7215 178.247L10.6714 214.46C5.77402 216.921 4.37085e-06 213.361 4.16623e-06 207.88L-1.86997e-06 46.184Z" fill="#5390E3"/>
<path d="M180.521 46.184C180.521 43.3491 182.149 40.7659 184.706 39.5417L256.756 5.04803C261.644 2.70785 267.3 6.27092 267.3 11.6903V171.667C267.3 174.451 265.73 176.997 263.243 178.247L191.193 214.46C186.295 216.921 180.521 213.361 180.521 207.88L180.521 46.184Z" fill="#5390E3"/>
<path d="M177.032 46.184C177.032 43.3491 175.405 40.7659 172.848 39.5417L100.798 5.04803C95.91 2.70785 90.2538 6.27092 90.2538 11.6903V171.667C90.2538 174.451 91.8236 176.997 94.311 178.247L166.361 214.46C171.258 216.921 177.032 213.361 177.032 207.88L177.032 46.184Z" fill="#1357B3"/>
</svg>
