<svg width="434" height="290" viewBox="0 0 434 290" fill="none" xmlns="http://www.w3.org/2000/svg">
<path d="M162.648 253.545L165.455 261.504H165.566L168.372 253.545H169.573L166.101 263H164.919L161.448 253.545H162.648ZM178.578 258.273C178.578 259.27 178.398 260.132 178.038 260.858C177.678 261.584 177.184 262.144 176.556 262.538C175.928 262.932 175.211 263.129 174.405 263.129C173.599 263.129 172.881 262.932 172.254 262.538C171.626 262.144 171.132 261.584 170.772 260.858C170.412 260.132 170.232 259.27 170.232 258.273C170.232 257.276 170.412 256.414 170.772 255.688C171.132 254.961 171.626 254.401 172.254 254.007C172.881 253.613 173.599 253.416 174.405 253.416C175.211 253.416 175.928 253.613 176.556 254.007C177.184 254.401 177.678 254.961 178.038 255.688C178.398 256.414 178.578 257.276 178.578 258.273ZM177.47 258.273C177.47 257.454 177.333 256.763 177.059 256.2C176.789 255.637 176.421 255.21 175.956 254.921C175.494 254.632 174.977 254.487 174.405 254.487C173.832 254.487 173.314 254.632 172.849 254.921C172.388 255.21 172.02 255.637 171.746 256.2C171.475 256.763 171.34 257.454 171.34 258.273C171.34 259.091 171.475 259.782 171.746 260.346C172.02 260.909 172.388 261.335 172.849 261.624C173.314 261.914 173.832 262.058 174.405 262.058C174.977 262.058 175.494 261.914 175.956 261.624C176.421 261.335 176.789 260.909 177.059 260.346C177.333 259.782 177.47 259.091 177.47 258.273ZM180.503 263V253.545H181.648V261.984H186.043V263H180.503ZM186.042 254.561V253.545H193.133V254.561H190.16V263H189.015V254.561H186.042ZM194.9 263V253.545H200.606V254.561H196.045V257.756H200.31V258.771H196.045V261.984H200.68V263H194.9ZM206.326 263V253.545H212.032V254.561H207.47V257.756H211.736V258.771H207.47V261.984H212.105V263H206.326ZM214.095 253.545H215.462L218.675 261.393H218.785L221.998 253.545H223.365V263H222.294V255.817H222.202L219.247 263H218.213L215.258 255.817H215.166V263H214.095V253.545ZM229.317 263V253.545H232.622C233.281 253.545 233.824 253.659 234.252 253.887C234.68 254.112 234.998 254.415 235.207 254.797C235.417 255.175 235.521 255.595 235.521 256.057C235.521 256.463 235.449 256.799 235.304 257.063C235.163 257.328 234.975 257.537 234.741 257.691C234.51 257.845 234.259 257.959 233.989 258.033V258.125C234.278 258.143 234.569 258.245 234.861 258.43C235.154 258.614 235.398 258.879 235.595 259.224C235.792 259.568 235.891 259.99 235.891 260.489C235.891 260.963 235.783 261.389 235.567 261.767C235.352 262.146 235.012 262.446 234.547 262.668C234.083 262.889 233.478 263 232.733 263H229.317ZM230.462 261.984H232.733C233.481 261.984 234.012 261.84 234.326 261.55C234.643 261.258 234.801 260.904 234.801 260.489C234.801 260.169 234.72 259.873 234.556 259.602C234.393 259.328 234.161 259.11 233.859 258.947C233.558 258.781 233.201 258.697 232.788 258.697H230.462V261.984ZM230.462 257.7H232.585C232.93 257.7 233.241 257.633 233.518 257.497C233.798 257.362 234.019 257.171 234.183 256.925C234.349 256.679 234.432 256.389 234.432 256.057C234.432 255.641 234.287 255.289 233.998 255C233.709 254.707 233.25 254.561 232.622 254.561H230.462V257.7ZM237.772 263V253.545H240.966C241.705 253.545 242.311 253.672 242.785 253.924C243.259 254.173 243.61 254.516 243.838 254.953C244.066 255.391 244.18 255.888 244.18 256.445C244.18 257.002 244.066 257.496 243.838 257.926C243.61 258.357 243.261 258.696 242.79 258.942C242.319 259.185 241.717 259.307 240.985 259.307H238.4V258.273H240.948C241.453 258.273 241.859 258.199 242.167 258.051C242.478 257.903 242.702 257.694 242.841 257.423C242.982 257.149 243.053 256.823 243.053 256.445C243.053 256.066 242.982 255.735 242.841 255.452C242.699 255.169 242.473 254.95 242.162 254.797C241.851 254.64 241.44 254.561 240.93 254.561H238.917V263H237.772ZM242.222 258.753L244.549 263H243.219L240.93 258.753H242.222ZM246.087 263V253.545H251.793V254.561H247.232V257.756H251.498V258.771H247.232V261.984H251.867V263H246.087ZM254.245 253.545L257.051 261.504H257.162L259.969 253.545H261.169L257.698 263H256.516L253.044 253.545H254.245ZM262.642 263V253.545H268.348V254.561H263.787V257.756H268.052V258.771H263.787V261.984H268.422V263H262.642ZM271.704 253.545L271.612 260.341H270.541L270.448 253.545H271.704ZM271.076 263.074C270.849 263.074 270.653 262.992 270.49 262.829C270.327 262.666 270.245 262.471 270.245 262.243C270.245 262.015 270.327 261.82 270.49 261.657C270.653 261.493 270.849 261.412 271.076 261.412C271.304 261.412 271.499 261.493 271.663 261.657C271.826 261.82 271.907 262.015 271.907 262.243C271.907 262.394 271.869 262.532 271.792 262.658C271.718 262.785 271.618 262.886 271.492 262.963C271.369 263.037 271.23 263.074 271.076 263.074ZM177.431 275V267.727H181.821V268.509H178.312V270.966H181.593V271.747H178.312V274.219H181.877V275H177.431ZM187.158 270.767L186.405 270.98C186.358 270.855 186.288 270.733 186.196 270.614C186.106 270.494 185.983 270.394 185.826 270.316C185.67 270.238 185.47 270.199 185.226 270.199C184.892 270.199 184.614 270.276 184.392 270.43C184.172 270.581 184.061 270.774 184.061 271.009C184.061 271.217 184.137 271.381 184.289 271.502C184.44 271.623 184.677 271.723 184.999 271.804L185.809 272.003C186.296 272.121 186.66 272.302 186.899 272.546C187.138 272.788 187.257 273.099 187.257 273.48C187.257 273.793 187.167 274.072 186.988 274.318C186.81 274.564 186.561 274.759 186.242 274.901C185.922 275.043 185.551 275.114 185.127 275.114C184.57 275.114 184.11 274.993 183.745 274.751C183.381 274.51 183.15 274.157 183.053 273.693L183.848 273.494C183.924 273.788 184.067 274.008 184.278 274.155C184.491 274.302 184.769 274.375 185.113 274.375C185.503 274.375 185.813 274.292 186.043 274.126C186.275 273.958 186.391 273.757 186.391 273.523C186.391 273.333 186.325 273.175 186.192 273.047C186.06 272.917 185.856 272.82 185.581 272.756L184.672 272.543C184.173 272.424 183.806 272.241 183.571 271.992C183.339 271.741 183.223 271.428 183.223 271.051C183.223 270.743 183.31 270.471 183.483 270.234C183.658 269.998 183.896 269.812 184.196 269.677C184.499 269.542 184.843 269.474 185.226 269.474C185.766 269.474 186.19 269.593 186.498 269.83C186.808 270.066 187.028 270.379 187.158 270.767ZM190.891 269.545V270.256H188.064V269.545H190.891ZM188.888 268.239H189.726V273.438C189.726 273.674 189.761 273.852 189.829 273.97C189.9 274.086 189.99 274.164 190.099 274.205C190.211 274.242 190.328 274.261 190.451 274.261C190.543 274.261 190.619 274.257 190.678 274.247C190.737 274.235 190.785 274.226 190.82 274.219L190.991 274.972C190.934 274.993 190.854 275.014 190.753 275.036C190.651 275.059 190.522 275.071 190.366 275.071C190.129 275.071 189.897 275.02 189.67 274.918C189.445 274.817 189.258 274.661 189.108 274.453C188.962 274.245 188.888 273.982 188.888 273.665V268.239ZM193.757 275.128C193.411 275.128 193.098 275.063 192.816 274.933C192.534 274.8 192.31 274.609 192.145 274.361C191.979 274.11 191.896 273.807 191.896 273.452C191.896 273.139 191.958 272.886 192.081 272.692C192.204 272.495 192.368 272.341 192.574 272.23C192.78 272.119 193.008 272.036 193.256 271.982C193.507 271.925 193.759 271.88 194.013 271.847C194.344 271.804 194.613 271.772 194.819 271.751C195.027 271.727 195.179 271.688 195.273 271.634C195.37 271.579 195.419 271.484 195.419 271.349V271.321C195.419 270.971 195.323 270.698 195.131 270.504C194.942 270.31 194.654 270.213 194.268 270.213C193.868 270.213 193.555 270.301 193.327 270.476C193.1 270.651 192.94 270.838 192.848 271.037L192.052 270.753C192.194 270.421 192.384 270.163 192.621 269.979C192.86 269.792 193.12 269.661 193.402 269.588C193.686 269.512 193.965 269.474 194.24 269.474C194.415 269.474 194.616 269.496 194.844 269.538C195.073 269.579 195.295 269.663 195.508 269.79C195.723 269.918 195.902 270.111 196.044 270.369C196.186 270.627 196.257 270.973 196.257 271.406V275H195.419V274.261H195.376C195.319 274.38 195.225 274.506 195.092 274.641C194.96 274.776 194.783 274.891 194.563 274.986C194.343 275.08 194.074 275.128 193.757 275.128ZM193.885 274.375C194.216 274.375 194.496 274.31 194.723 274.18C194.952 274.049 195.125 273.881 195.241 273.675C195.36 273.469 195.419 273.253 195.419 273.026V272.259C195.383 272.301 195.305 272.34 195.184 272.376C195.066 272.409 194.929 272.438 194.773 272.464C194.619 272.488 194.468 272.509 194.322 272.528C194.177 272.545 194.06 272.559 193.97 272.571C193.752 272.599 193.549 272.646 193.359 272.71C193.172 272.771 193.021 272.865 192.905 272.99C192.791 273.113 192.734 273.281 192.734 273.494C192.734 273.786 192.842 274.006 193.057 274.155C193.275 274.302 193.551 274.375 193.885 274.375ZM200.599 277.045V269.545H201.409V270.412H201.508C201.57 270.317 201.655 270.196 201.764 270.05C201.875 269.901 202.034 269.768 202.24 269.652C202.448 269.534 202.73 269.474 203.085 269.474C203.544 269.474 203.949 269.589 204.299 269.819C204.65 270.049 204.923 270.374 205.12 270.795C205.316 271.217 205.414 271.714 205.414 272.287C205.414 272.865 205.316 273.365 205.12 273.789C204.923 274.21 204.651 274.537 204.303 274.769C203.955 274.999 203.554 275.114 203.099 275.114C202.749 275.114 202.468 275.056 202.257 274.94C202.047 274.821 201.885 274.687 201.771 274.538C201.657 274.387 201.57 274.261 201.508 274.162H201.437V277.045H200.599ZM201.423 272.273C201.423 272.685 201.483 273.048 201.604 273.363C201.725 273.675 201.901 273.92 202.133 274.098C202.365 274.273 202.649 274.361 202.985 274.361C203.336 274.361 203.628 274.268 203.863 274.084C204.099 273.897 204.277 273.646 204.395 273.331C204.516 273.014 204.576 272.661 204.576 272.273C204.576 271.889 204.517 271.544 204.399 271.236C204.283 270.926 204.106 270.681 203.87 270.501C203.635 270.318 203.341 270.227 202.985 270.227C202.645 270.227 202.358 270.314 202.126 270.487C201.894 270.657 201.719 270.896 201.6 271.204C201.482 271.509 201.423 271.866 201.423 272.273ZM208.298 275.128C207.952 275.128 207.639 275.063 207.357 274.933C207.075 274.8 206.851 274.609 206.686 274.361C206.52 274.11 206.437 273.807 206.437 273.452C206.437 273.139 206.499 272.886 206.622 272.692C206.745 272.495 206.909 272.341 207.115 272.23C207.321 272.119 207.549 272.036 207.797 271.982C208.048 271.925 208.3 271.88 208.554 271.847C208.885 271.804 209.154 271.772 209.36 271.751C209.568 271.727 209.72 271.688 209.814 271.634C209.911 271.579 209.96 271.484 209.96 271.349V271.321C209.96 270.971 209.864 270.698 209.672 270.504C209.483 270.31 209.195 270.213 208.809 270.213C208.409 270.213 208.096 270.301 207.868 270.476C207.641 270.651 207.481 270.838 207.389 271.037L206.593 270.753C206.735 270.421 206.925 270.163 207.162 269.979C207.401 269.792 207.661 269.661 207.943 269.588C208.227 269.512 208.506 269.474 208.781 269.474C208.956 269.474 209.157 269.496 209.385 269.538C209.614 269.579 209.836 269.663 210.049 269.79C210.264 269.918 210.443 270.111 210.585 270.369C210.727 270.627 210.798 270.973 210.798 271.406V275H209.96V274.261H209.917C209.86 274.38 209.766 274.506 209.633 274.641C209.501 274.776 209.324 274.891 209.104 274.986C208.884 275.08 208.615 275.128 208.298 275.128ZM208.426 274.375C208.757 274.375 209.037 274.31 209.264 274.18C209.493 274.049 209.666 273.881 209.782 273.675C209.901 273.469 209.96 273.253 209.96 273.026V272.259C209.924 272.301 209.846 272.34 209.725 272.376C209.607 272.409 209.47 272.438 209.314 272.464C209.16 272.488 209.009 272.509 208.863 272.528C208.718 272.545 208.601 272.559 208.511 272.571C208.293 272.599 208.09 272.646 207.9 272.71C207.713 272.771 207.562 272.865 207.446 272.99C207.332 273.113 207.275 273.281 207.275 273.494C207.275 273.786 207.383 274.006 207.598 274.155C207.816 274.302 208.092 274.375 208.426 274.375ZM208.454 268.807L209.321 267.159H210.301L209.193 268.807H208.454ZM214.529 277.159C214.124 277.159 213.776 277.107 213.485 277.003C213.194 276.901 212.951 276.766 212.757 276.598C212.566 276.432 212.413 276.255 212.299 276.065L212.967 275.597C213.043 275.696 213.138 275.81 213.254 275.938C213.37 276.068 213.529 276.18 213.73 276.275C213.934 276.372 214.2 276.42 214.529 276.42C214.97 276.42 215.333 276.314 215.619 276.101C215.906 275.888 216.049 275.554 216.049 275.099V273.991H215.978C215.917 274.091 215.829 274.214 215.715 274.361C215.604 274.505 215.443 274.634 215.232 274.748C215.024 274.859 214.742 274.915 214.387 274.915C213.947 274.915 213.552 274.811 213.201 274.602C212.853 274.394 212.577 274.091 212.374 273.693C212.173 273.295 212.072 272.812 212.072 272.244C212.072 271.686 212.17 271.199 212.367 270.785C212.563 270.368 212.837 270.046 213.187 269.819C213.537 269.589 213.942 269.474 214.401 269.474C214.757 269.474 215.038 269.534 215.247 269.652C215.457 269.768 215.618 269.901 215.73 270.05C215.843 270.196 215.931 270.317 215.992 270.412H216.078V269.545H216.887V275.156C216.887 275.625 216.781 276.006 216.568 276.3C216.357 276.596 216.073 276.812 215.715 276.95C215.36 277.089 214.965 277.159 214.529 277.159ZM214.501 274.162C214.837 274.162 215.121 274.085 215.353 273.931C215.585 273.777 215.762 273.556 215.882 273.267C216.003 272.978 216.063 272.633 216.063 272.23C216.063 271.837 216.004 271.49 215.886 271.19C215.767 270.889 215.592 270.653 215.36 270.483C215.128 270.312 214.842 270.227 214.501 270.227C214.146 270.227 213.85 270.317 213.613 270.497C213.379 270.677 213.202 270.919 213.084 271.222C212.968 271.525 212.91 271.861 212.91 272.23C212.91 272.609 212.969 272.944 213.088 273.235C213.208 273.524 213.386 273.751 213.62 273.917C213.857 274.08 214.151 274.162 214.501 274.162ZM218.421 275V269.545H219.259V275H218.421ZM218.847 268.636C218.684 268.636 218.543 268.581 218.425 268.469C218.309 268.358 218.251 268.224 218.251 268.068C218.251 267.912 218.309 267.778 218.425 267.667C218.543 267.556 218.684 267.5 218.847 267.5C219.011 267.5 219.151 267.556 219.267 267.667C219.385 267.778 219.444 267.912 219.444 268.068C219.444 268.224 219.385 268.358 219.267 268.469C219.151 268.581 219.011 268.636 218.847 268.636ZM221.632 271.719V275H220.794V269.545H221.604V270.398H221.675C221.803 270.121 221.997 269.898 222.257 269.73C222.518 269.56 222.854 269.474 223.266 269.474C223.635 269.474 223.958 269.55 224.235 269.702C224.512 269.851 224.728 270.078 224.882 270.384C225.036 270.687 225.113 271.07 225.113 271.534V275H224.275V271.591C224.275 271.162 224.163 270.829 223.941 270.589C223.718 270.348 223.413 270.227 223.025 270.227C222.757 270.227 222.518 270.285 222.307 270.401C222.099 270.517 221.934 270.687 221.814 270.909C221.693 271.132 221.632 271.402 221.632 271.719ZM228.249 275.128C227.903 275.128 227.59 275.063 227.308 274.933C227.026 274.8 226.803 274.609 226.637 274.361C226.471 274.11 226.388 273.807 226.388 273.452C226.388 273.139 226.45 272.886 226.573 272.692C226.696 272.495 226.861 272.341 227.067 272.23C227.273 272.119 227.5 272.036 227.748 271.982C227.999 271.925 228.251 271.88 228.505 271.847C228.836 271.804 229.105 271.772 229.311 271.751C229.519 271.727 229.671 271.688 229.765 271.634C229.863 271.579 229.911 271.484 229.911 271.349V271.321C229.911 270.971 229.815 270.698 229.623 270.504C229.434 270.31 229.146 270.213 228.76 270.213C228.36 270.213 228.047 270.301 227.819 270.476C227.592 270.651 227.432 270.838 227.34 271.037L226.545 270.753C226.687 270.421 226.876 270.163 227.113 269.979C227.352 269.792 227.612 269.661 227.894 269.588C228.178 269.512 228.457 269.474 228.732 269.474C228.907 269.474 229.108 269.496 229.336 269.538C229.565 269.579 229.787 269.663 230 269.79C230.215 269.918 230.394 270.111 230.536 270.369C230.678 270.627 230.749 270.973 230.749 271.406V275H229.911V274.261H229.868C229.812 274.38 229.717 274.506 229.584 274.641C229.452 274.776 229.275 274.891 229.055 274.986C228.835 275.08 228.566 275.128 228.249 275.128ZM228.377 274.375C228.708 274.375 228.988 274.31 229.215 274.18C229.445 274.049 229.617 273.881 229.733 273.675C229.852 273.469 229.911 273.253 229.911 273.026V272.259C229.876 272.301 229.797 272.34 229.677 272.376C229.558 272.409 229.421 272.438 229.265 272.464C229.111 272.488 228.961 272.509 228.814 272.528C228.669 272.545 228.552 272.559 228.462 272.571C228.244 272.599 228.041 272.646 227.851 272.71C227.664 272.771 227.513 272.865 227.397 272.99C227.283 273.113 227.226 273.281 227.226 273.494C227.226 273.786 227.334 274.006 227.55 274.155C227.767 274.302 228.043 274.375 228.377 274.375ZM237.378 275.114C236.853 275.114 236.399 274.998 236.018 274.766C235.639 274.531 235.347 274.205 235.141 273.786C234.937 273.364 234.836 272.874 234.836 272.315C234.836 271.757 234.937 271.264 235.141 270.838C235.347 270.41 235.633 270.076 236 269.837C236.37 269.595 236.801 269.474 237.293 269.474C237.577 269.474 237.858 269.522 238.135 269.616C238.412 269.711 238.664 269.865 238.891 270.078C239.118 270.289 239.299 270.568 239.434 270.916C239.569 271.264 239.637 271.693 239.637 272.202V272.557H235.432V271.832H238.784C238.784 271.525 238.723 271.25 238.6 271.009C238.479 270.767 238.306 270.576 238.081 270.437C237.859 270.297 237.596 270.227 237.293 270.227C236.959 270.227 236.67 270.31 236.426 270.476C236.185 270.639 235.999 270.852 235.869 271.115C235.739 271.378 235.674 271.66 235.674 271.96V272.443C235.674 272.855 235.745 273.204 235.887 273.491C236.031 273.775 236.231 273.991 236.487 274.141C236.743 274.287 237.04 274.361 237.378 274.361C237.598 274.361 237.797 274.33 237.975 274.268C238.155 274.205 238.31 274.11 238.44 273.984C238.57 273.857 238.671 273.698 238.742 273.509L239.551 273.736C239.466 274.01 239.323 274.252 239.122 274.46C238.921 274.666 238.672 274.827 238.376 274.943C238.08 275.057 237.748 275.114 237.378 275.114ZM244.775 270.767L244.022 270.98C243.975 270.855 243.905 270.733 243.813 270.614C243.723 270.494 243.6 270.394 243.444 270.316C243.287 270.238 243.087 270.199 242.843 270.199C242.51 270.199 242.231 270.276 242.009 270.43C241.789 270.581 241.679 270.774 241.679 271.009C241.679 271.217 241.754 271.381 241.906 271.502C242.057 271.623 242.294 271.723 242.616 271.804L243.426 272.003C243.913 272.121 244.277 272.302 244.516 272.546C244.755 272.788 244.875 273.099 244.875 273.48C244.875 273.793 244.785 274.072 244.605 274.318C244.427 274.564 244.179 274.759 243.859 274.901C243.539 275.043 243.168 275.114 242.744 275.114C242.188 275.114 241.727 274.993 241.363 274.751C240.998 274.51 240.767 274.157 240.67 273.693L241.466 273.494C241.541 273.788 241.685 274.008 241.895 274.155C242.108 274.302 242.386 274.375 242.73 274.375C243.12 274.375 243.431 274.292 243.66 274.126C243.892 273.958 244.008 273.757 244.008 273.523C244.008 273.333 243.942 273.175 243.809 273.047C243.677 272.917 243.473 272.82 243.199 272.756L242.289 272.543C241.79 272.424 241.423 272.241 241.189 271.992C240.957 271.741 240.841 271.428 240.841 271.051C240.841 270.743 240.927 270.471 241.1 270.234C241.275 269.998 241.513 269.812 241.814 269.677C242.117 269.542 242.46 269.474 242.843 269.474C243.383 269.474 243.807 269.593 244.115 269.83C244.425 270.066 244.645 270.379 244.775 270.767ZM248.508 269.545V270.256H245.682V269.545H248.508ZM246.506 268.239H247.344V273.438C247.344 273.674 247.378 273.852 247.447 273.97C247.518 274.086 247.608 274.164 247.716 274.205C247.828 274.242 247.945 274.261 248.068 274.261C248.16 274.261 248.236 274.257 248.295 274.247C248.354 274.235 248.402 274.226 248.437 274.219L248.608 274.972C248.551 274.993 248.472 275.014 248.37 275.036C248.268 275.059 248.139 275.071 247.983 275.071C247.746 275.071 247.514 275.02 247.287 274.918C247.062 274.817 246.875 274.661 246.726 274.453C246.579 274.245 246.506 273.982 246.506 273.665V268.239ZM251.374 275.128C251.028 275.128 250.715 275.063 250.433 274.933C250.151 274.8 249.928 274.609 249.762 274.361C249.596 274.11 249.513 273.807 249.513 273.452C249.513 273.139 249.575 272.886 249.698 272.692C249.821 272.495 249.986 272.341 250.192 272.23C250.398 272.119 250.625 272.036 250.873 271.982C251.124 271.925 251.376 271.88 251.63 271.847C251.961 271.804 252.23 271.772 252.436 271.751C252.644 271.727 252.796 271.688 252.89 271.634C252.988 271.579 253.036 271.484 253.036 271.349V271.321C253.036 270.971 252.94 270.698 252.748 270.504C252.559 270.31 252.271 270.213 251.885 270.213C251.485 270.213 251.172 270.301 250.944 270.476C250.717 270.651 250.557 270.838 250.465 271.037L249.67 270.753C249.812 270.421 250.001 270.163 250.238 269.979C250.477 269.792 250.737 269.661 251.019 269.588C251.303 269.512 251.582 269.474 251.857 269.474C252.032 269.474 252.233 269.496 252.461 269.538C252.69 269.579 252.912 269.663 253.125 269.79C253.34 269.918 253.519 270.111 253.661 270.369C253.803 270.627 253.874 270.973 253.874 271.406V275H253.036V274.261H252.993C252.937 274.38 252.842 274.506 252.709 274.641C252.577 274.776 252.4 274.891 252.18 274.986C251.96 275.08 251.691 275.128 251.374 275.128ZM251.502 274.375C251.833 274.375 252.113 274.31 252.34 274.18C252.57 274.049 252.742 273.881 252.858 273.675C252.977 273.469 253.036 273.253 253.036 273.026V272.259C253.001 272.301 252.922 272.34 252.802 272.376C252.683 272.409 252.546 272.438 252.39 272.464C252.236 272.488 252.086 272.509 251.939 272.528C251.794 272.545 251.677 272.559 251.587 272.571C251.369 272.599 251.166 272.646 250.976 272.71C250.789 272.771 250.638 272.865 250.522 272.99C250.408 273.113 250.351 273.281 250.351 273.494C250.351 273.786 250.459 274.006 250.675 274.155C250.892 274.302 251.168 274.375 251.502 274.375ZM251.53 268.807L252.397 267.159H253.377L252.269 268.807H251.53ZM171.25 287.114C170.725 287.114 170.271 286.998 169.89 286.766C169.511 286.531 169.219 286.205 169.013 285.786C168.809 285.364 168.708 284.874 168.708 284.315C168.708 283.757 168.809 283.264 169.013 282.838C169.219 282.41 169.505 282.076 169.872 281.837C170.242 281.595 170.673 281.474 171.165 281.474C171.449 281.474 171.73 281.522 172.007 281.616C172.284 281.711 172.536 281.865 172.763 282.078C172.99 282.289 173.171 282.568 173.306 282.916C173.441 283.264 173.509 283.693 173.509 284.202V284.557H169.304V283.832H172.657C172.657 283.525 172.595 283.25 172.472 283.009C172.351 282.767 172.178 282.576 171.953 282.437C171.731 282.297 171.468 282.227 171.165 282.227C170.831 282.227 170.542 282.31 170.299 282.476C170.057 282.639 169.871 282.852 169.741 283.115C169.611 283.378 169.546 283.66 169.546 283.96V284.443C169.546 284.855 169.617 285.204 169.759 285.491C169.903 285.775 170.103 285.991 170.359 286.141C170.615 286.287 170.912 286.361 171.25 286.361C171.47 286.361 171.669 286.33 171.847 286.268C172.027 286.205 172.182 286.11 172.312 285.984C172.442 285.857 172.543 285.698 172.614 285.509L173.424 285.736C173.338 286.01 173.195 286.252 172.994 286.46C172.793 286.666 172.544 286.827 172.248 286.943C171.952 287.057 171.62 287.114 171.25 287.114ZM174.784 287V281.545H175.593V282.398H175.664C175.778 282.107 175.961 281.88 176.215 281.719C176.468 281.556 176.772 281.474 177.127 281.474C177.487 281.474 177.787 281.556 178.026 281.719C178.267 281.88 178.456 282.107 178.59 282.398H178.647C178.787 282.116 178.996 281.892 179.276 281.727C179.555 281.558 179.89 281.474 180.281 281.474C180.768 281.474 181.167 281.627 181.478 281.933C181.788 282.236 181.943 282.708 181.943 283.349V287H181.105V283.349C181.105 282.947 180.995 282.659 180.774 282.487C180.554 282.314 180.295 282.227 179.997 282.227C179.613 282.227 179.316 282.343 179.105 282.575C178.895 282.805 178.789 283.096 178.789 283.449V287H177.937V283.264C177.937 282.954 177.836 282.704 177.635 282.515C177.434 282.323 177.175 282.227 176.858 282.227C176.64 282.227 176.436 282.285 176.247 282.401C176.06 282.517 175.908 282.678 175.792 282.884C175.679 283.088 175.622 283.323 175.622 283.591V287H174.784ZM188.347 287.114C187.893 287.114 187.491 286.999 187.143 286.769C186.795 286.537 186.523 286.21 186.327 285.789C186.13 285.365 186.032 284.865 186.032 284.287C186.032 283.714 186.13 283.217 186.327 282.795C186.523 282.374 186.797 282.049 187.147 281.819C187.497 281.589 187.902 281.474 188.361 281.474C188.717 281.474 188.997 281.534 189.203 281.652C189.411 281.768 189.57 281.901 189.679 282.05C189.79 282.196 189.877 282.317 189.938 282.412H190.009V279.727H190.847V287H190.038V286.162H189.938C189.877 286.261 189.789 286.387 189.675 286.538C189.562 286.687 189.4 286.821 189.189 286.94C188.978 287.056 188.698 287.114 188.347 287.114ZM188.461 286.361C188.797 286.361 189.081 286.273 189.313 286.098C189.545 285.92 189.722 285.675 189.842 285.363C189.963 285.048 190.023 284.685 190.023 284.273C190.023 283.866 189.964 283.509 189.846 283.204C189.727 282.896 189.552 282.657 189.32 282.487C189.088 282.314 188.802 282.227 188.461 282.227C188.106 282.227 187.81 282.318 187.573 282.501C187.339 282.681 187.162 282.926 187.044 283.236C186.928 283.544 186.87 283.889 186.87 284.273C186.87 284.661 186.929 285.014 187.047 285.331C187.168 285.646 187.346 285.897 187.58 286.084C187.817 286.268 188.11 286.361 188.461 286.361ZM194.785 287.114C194.26 287.114 193.806 286.998 193.425 286.766C193.047 286.531 192.754 286.205 192.548 285.786C192.345 285.364 192.243 284.874 192.243 284.315C192.243 283.757 192.345 283.264 192.548 282.838C192.754 282.41 193.041 282.076 193.408 281.837C193.777 281.595 194.208 281.474 194.7 281.474C194.984 281.474 195.265 281.522 195.542 281.616C195.819 281.711 196.071 281.865 196.298 282.078C196.525 282.289 196.707 282.568 196.842 282.916C196.976 283.264 197.044 283.693 197.044 284.202V284.557H192.839V283.832H196.192C196.192 283.525 196.13 283.25 196.007 283.009C195.886 282.767 195.713 282.576 195.489 282.437C195.266 282.297 195.003 282.227 194.7 282.227C194.366 282.227 194.078 282.31 193.834 282.476C193.592 282.639 193.406 282.852 193.276 283.115C193.146 283.378 193.081 283.66 193.081 283.96V284.443C193.081 284.855 193.152 285.204 193.294 285.491C193.438 285.775 193.638 285.991 193.894 286.141C194.15 286.287 194.447 286.361 194.785 286.361C195.006 286.361 195.204 286.33 195.382 286.268C195.562 286.205 195.717 286.11 195.847 285.984C195.977 285.857 196.078 285.698 196.149 285.509L196.959 285.736C196.873 286.01 196.73 286.252 196.529 286.46C196.328 286.666 196.079 286.827 195.783 286.943C195.487 287.057 195.155 287.114 194.785 287.114ZM202.182 282.767L201.43 282.98C201.382 282.855 201.312 282.733 201.22 282.614C201.13 282.494 201.007 282.394 200.851 282.316C200.695 282.238 200.494 282.199 200.251 282.199C199.917 282.199 199.639 282.276 199.416 282.43C199.196 282.581 199.086 282.774 199.086 283.009C199.086 283.217 199.162 283.381 199.313 283.502C199.465 283.623 199.701 283.723 200.023 283.804L200.833 284.003C201.321 284.121 201.684 284.302 201.923 284.546C202.162 284.788 202.282 285.099 202.282 285.48C202.282 285.793 202.192 286.072 202.012 286.318C201.834 286.564 201.586 286.759 201.266 286.901C200.947 287.043 200.575 287.114 200.151 287.114C199.595 287.114 199.134 286.993 198.77 286.751C198.405 286.51 198.174 286.157 198.077 285.693L198.873 285.494C198.949 285.788 199.092 286.008 199.302 286.155C199.516 286.302 199.794 286.375 200.137 286.375C200.528 286.375 200.838 286.292 201.067 286.126C201.299 285.958 201.415 285.757 201.415 285.523C201.415 285.333 201.349 285.175 201.217 285.047C201.084 284.917 200.88 284.82 200.606 284.756L199.697 284.543C199.197 284.424 198.83 284.241 198.596 283.992C198.364 283.741 198.248 283.428 198.248 283.051C198.248 282.743 198.334 282.471 198.507 282.234C198.682 281.998 198.92 281.812 199.221 281.677C199.524 281.542 199.867 281.474 200.251 281.474C200.79 281.474 201.214 281.593 201.522 281.83C201.832 282.066 202.052 282.379 202.182 282.767ZM205.83 287.114C205.305 287.114 204.851 286.998 204.47 286.766C204.091 286.531 203.799 286.205 203.593 285.786C203.39 285.364 203.288 284.874 203.288 284.315C203.288 283.757 203.39 283.264 203.593 282.838C203.799 282.41 204.086 282.076 204.453 281.837C204.822 281.595 205.253 281.474 205.745 281.474C206.029 281.474 206.31 281.522 206.587 281.616C206.864 281.711 207.116 281.865 207.343 282.078C207.57 282.289 207.752 282.568 207.886 282.916C208.021 283.264 208.089 283.693 208.089 284.202V284.557H203.884V283.832H207.237C207.237 283.525 207.175 283.25 207.052 283.009C206.931 282.767 206.758 282.576 206.533 282.437C206.311 282.297 206.048 282.227 205.745 282.227C205.411 282.227 205.122 282.31 204.879 282.476C204.637 282.639 204.451 282.852 204.321 283.115C204.191 283.378 204.126 283.66 204.126 283.96V284.443C204.126 284.855 204.197 285.204 204.339 285.491C204.483 285.775 204.683 285.991 204.939 286.141C205.195 286.287 205.492 286.361 205.83 286.361C206.051 286.361 206.249 286.33 206.427 286.268C206.607 286.205 206.762 286.11 206.892 285.984C207.022 285.857 207.123 285.698 207.194 285.509L208.004 285.736C207.918 286.01 207.775 286.252 207.574 286.46C207.373 286.666 207.124 286.827 206.828 286.943C206.532 287.057 206.2 287.114 205.83 287.114ZM210.202 283.719V287H209.364V281.545H210.173V282.398H210.244C210.372 282.121 210.566 281.898 210.827 281.73C211.087 281.56 211.423 281.474 211.835 281.474C212.205 281.474 212.528 281.55 212.805 281.702C213.082 281.851 213.297 282.078 213.451 282.384C213.605 282.687 213.682 283.07 213.682 283.534V287H212.844V283.591C212.844 283.162 212.733 282.829 212.51 282.589C212.287 282.348 211.982 282.227 211.594 282.227C211.326 282.227 211.087 282.285 210.877 282.401C210.668 282.517 210.504 282.687 210.383 282.909C210.262 283.132 210.202 283.402 210.202 283.719ZM219.478 281.545L217.461 287H216.609L214.592 281.545H215.501L217.007 285.892H217.063L218.569 281.545H219.478ZM222.605 287.114C222.113 287.114 221.681 286.996 221.309 286.762C220.94 286.528 220.651 286.2 220.442 285.778C220.236 285.357 220.133 284.865 220.133 284.301C220.133 283.733 220.236 283.237 220.442 282.813C220.651 282.389 220.94 282.06 221.309 281.826C221.681 281.592 222.113 281.474 222.605 281.474C223.097 281.474 223.528 281.592 223.898 281.826C224.269 282.06 224.558 282.389 224.764 282.813C224.972 283.237 225.077 283.733 225.077 284.301C225.077 284.865 224.972 285.357 224.764 285.778C224.558 286.2 224.269 286.528 223.898 286.762C223.528 286.996 223.097 287.114 222.605 287.114ZM222.605 286.361C222.979 286.361 223.287 286.265 223.528 286.073C223.77 285.881 223.949 285.629 224.065 285.317C224.181 285.004 224.239 284.666 224.239 284.301C224.239 283.937 224.181 283.597 224.065 283.282C223.949 282.967 223.77 282.713 223.528 282.518C223.287 282.324 222.979 282.227 222.605 282.227C222.231 282.227 221.923 282.324 221.682 282.518C221.44 282.713 221.262 282.967 221.146 283.282C221.03 283.597 220.972 283.937 220.972 284.301C220.972 284.666 221.03 285.004 221.146 285.317C221.262 285.629 221.44 285.881 221.682 286.073C221.923 286.265 222.231 286.361 222.605 286.361ZM227.194 279.727V287H226.356V279.727H227.194ZM233.189 281.545L231.172 287H230.32L228.303 281.545H229.212L230.718 285.892H230.774L232.28 281.545H233.189ZM234.295 287V281.545H235.133V287H234.295ZM234.722 280.636C234.558 280.636 234.417 280.581 234.299 280.469C234.183 280.358 234.125 280.224 234.125 280.068C234.125 279.912 234.183 279.778 234.299 279.667C234.417 279.556 234.558 279.5 234.722 279.5C234.885 279.5 235.025 279.556 235.141 279.667C235.259 279.778 235.318 279.912 235.318 280.068C235.318 280.224 235.259 280.358 235.141 280.469C235.025 280.581 234.885 280.636 234.722 280.636ZM236.668 287V281.545H237.478V282.398H237.549C237.663 282.107 237.846 281.88 238.1 281.719C238.353 281.556 238.657 281.474 239.012 281.474C239.372 281.474 239.671 281.556 239.911 281.719C240.152 281.88 240.34 282.107 240.475 282.398H240.532C240.672 282.116 240.881 281.892 241.161 281.727C241.44 281.558 241.775 281.474 242.166 281.474C242.653 281.474 243.052 281.627 243.362 281.933C243.672 282.236 243.828 282.708 243.828 283.349V287H242.989V283.349C242.989 282.947 242.879 282.659 242.659 282.487C242.439 282.314 242.18 282.227 241.881 282.227C241.498 282.227 241.201 282.343 240.99 282.575C240.779 282.805 240.674 283.096 240.674 283.449V287H239.822V283.264C239.822 282.954 239.721 282.704 239.52 282.515C239.319 282.323 239.06 282.227 238.742 282.227C238.524 282.227 238.321 282.285 238.131 282.401C237.944 282.517 237.793 282.678 237.677 282.884C237.563 283.088 237.506 283.323 237.506 283.591V287H236.668ZM247.647 287.114C247.121 287.114 246.668 286.998 246.287 286.766C245.908 286.531 245.616 286.205 245.41 285.786C245.206 285.364 245.104 284.874 245.104 284.315C245.104 283.757 245.206 283.264 245.41 282.838C245.616 282.41 245.902 282.076 246.269 281.837C246.638 281.595 247.069 281.474 247.562 281.474C247.846 281.474 248.126 281.522 248.403 281.616C248.68 281.711 248.932 281.865 249.16 282.078C249.387 282.289 249.568 282.568 249.703 282.916C249.838 283.264 249.905 283.693 249.905 284.202V284.557H245.701V283.832H249.053C249.053 283.525 248.991 283.25 248.868 283.009C248.748 282.767 248.575 282.576 248.35 282.437C248.127 282.297 247.865 282.227 247.562 282.227C247.228 282.227 246.939 282.31 246.695 282.476C246.454 282.639 246.268 282.852 246.138 283.115C246.007 283.378 245.942 283.66 245.942 283.96V284.443C245.942 284.855 246.013 285.204 246.155 285.491C246.3 285.775 246.5 285.991 246.755 286.141C247.011 286.287 247.308 286.361 247.647 286.361C247.867 286.361 248.066 286.33 248.243 286.268C248.423 286.205 248.578 286.11 248.709 285.984C248.839 285.857 248.939 285.698 249.01 285.509L249.82 285.736C249.735 286.01 249.592 286.252 249.39 286.46C249.189 286.666 248.941 286.827 248.645 286.943C248.349 287.057 248.016 287.114 247.647 287.114ZM252.018 283.719V287H251.18V281.545H251.99V282.398H252.061C252.189 282.121 252.383 281.898 252.643 281.73C252.904 281.56 253.24 281.474 253.652 281.474C254.021 281.474 254.344 281.55 254.621 281.702C254.898 281.851 255.114 282.078 255.267 282.384C255.421 282.687 255.498 283.07 255.498 283.534V287H254.66V283.591C254.66 283.162 254.549 282.829 254.326 282.589C254.104 282.348 253.799 282.227 253.41 282.227C253.143 282.227 252.904 282.285 252.693 282.401C252.485 282.517 252.32 282.687 252.199 282.909C252.079 283.132 252.018 283.402 252.018 283.719ZM259.402 281.545V282.256H256.575V281.545H259.402ZM257.399 280.239H258.237V285.438C258.237 285.674 258.271 285.852 258.34 285.97C258.411 286.086 258.501 286.164 258.61 286.205C258.721 286.242 258.838 286.261 258.962 286.261C259.054 286.261 259.13 286.257 259.189 286.247C259.248 286.235 259.295 286.226 259.331 286.219L259.501 286.972C259.445 286.993 259.365 287.014 259.263 287.036C259.162 287.059 259.033 287.071 258.876 287.071C258.64 287.071 258.408 287.02 258.18 286.918C257.955 286.817 257.768 286.661 257.619 286.453C257.472 286.245 257.399 285.982 257.399 285.665V280.239ZM262.82 287.114C262.327 287.114 261.895 286.996 261.524 286.762C261.154 286.528 260.866 286.2 260.657 285.778C260.451 285.357 260.348 284.865 260.348 284.301C260.348 283.733 260.451 283.237 260.657 282.813C260.866 282.389 261.154 282.06 261.524 281.826C261.895 281.592 262.327 281.474 262.82 281.474C263.312 281.474 263.743 281.592 264.112 281.826C264.484 282.06 264.773 282.389 264.979 282.813C265.187 283.237 265.291 283.733 265.291 284.301C265.291 284.865 265.187 285.357 264.979 285.778C264.773 286.2 264.484 286.528 264.112 286.762C263.743 286.996 263.312 287.114 262.82 287.114ZM262.82 286.361C263.194 286.361 263.502 286.265 263.743 286.073C263.985 285.881 264.163 285.629 264.279 285.317C264.395 285.004 264.453 284.666 264.453 284.301C264.453 283.937 264.395 283.597 264.279 283.282C264.163 282.967 263.985 282.713 263.743 282.518C263.502 282.324 263.194 282.227 262.82 282.227C262.446 282.227 262.138 282.324 261.897 282.518C261.655 282.713 261.476 282.967 261.36 283.282C261.244 283.597 261.186 283.937 261.186 284.301C261.186 284.666 261.244 285.004 261.36 285.317C261.476 285.629 261.655 285.881 261.897 286.073C262.138 286.265 262.446 286.361 262.82 286.361Z" fill="#516092"/>
<path d="M332.49 282.017H309.71C308.96 282.017 308.352 282.625 308.352 283.375C308.352 284.125 308.96 284.733 309.71 284.733H332.49C333.24 284.733 333.849 284.125 333.849 283.375C333.849 282.625 333.24 282.017 332.49 282.017Z" fill="#ED7445"/>
<path d="M322.949 262.651C322.842 262.358 322.564 262.163 322.252 262.163H319.641C319.326 262.163 319.045 262.362 318.941 262.66L311.59 283.69H330.608L322.949 262.651Z" fill="#ED7445"/>
<path d="M317.581 266.552L316.42 269.874H325.579L324.369 266.552H317.581Z" fill="#ECEFF1"/>
<path d="M314.622 275.016L313.461 278.338H328.661L327.451 275.016H314.622Z" fill="#ECEFF1"/>
<path d="M124.29 282.017H101.51C100.76 282.017 100.152 282.625 100.152 283.375C100.152 284.125 100.76 284.733 101.51 284.733H124.29C125.04 284.733 125.648 284.125 125.648 283.375C125.648 282.625 125.041 282.017 124.29 282.017Z" fill="#ED7445"/>
<path d="M114.75 262.651C114.643 262.358 114.365 262.163 114.053 262.163H111.442C111.127 262.163 110.846 262.362 110.742 262.66L103.391 283.69H122.409L114.75 262.651Z" fill="#ED7445"/>
<path d="M109.382 266.552L108.221 269.874H117.38L116.171 266.552H109.382Z" fill="#ECEFF1"/>
<path d="M106.424 275.016L105.263 278.338H120.462L119.252 275.016H106.424Z" fill="#ECEFF1"/>
<path opacity="0.5" d="M125.502 130.604H70.9043V225.338H125.502H140.428H204.615V60.1431H125.502V130.604Z" fill="#D4E0FF"/>
<path opacity="0.5" d="M294.615 136.342V0.673828H215.502V225.338H291.5H294.615H352.697V136.342H294.615Z" fill="#D4E0FF"/>
<path d="M434 222.338H-0.000976562V224.338H434V222.338Z" fill="#516092"/>
<path d="M285.813 83.3379H95.0898V233.229H285.813V83.3379Z" fill="#BCCCFD"/>
<path d="M285.813 100.317H95.0898V233.229H285.813V100.317Z" fill="white"/>
<path d="M101.923 94.2848C103.46 94.2848 104.706 93.0388 104.706 91.5018C104.706 89.9647 103.46 88.7188 101.923 88.7188C100.386 88.7188 99.1396 89.9647 99.1396 91.5018C99.1396 93.0388 100.386 94.2848 101.923 94.2848Z" fill="white"/>
<path d="M116.538 91.5018C116.538 93.0388 115.292 94.2848 113.755 94.2848C112.218 94.2848 110.972 93.0388 110.972 91.5018C110.972 89.9648 112.218 88.7188 113.755 88.7188C115.292 88.7187 116.538 89.9648 116.538 91.5018Z" fill="white"/>
<path d="M128.37 91.5018C128.37 93.0388 127.124 94.2848 125.587 94.2848C124.05 94.2848 122.804 93.0388 122.804 91.5018C122.804 89.9648 124.05 88.7188 125.587 88.7188C127.124 88.7187 128.37 89.9648 128.37 91.5018Z" fill="white"/>
<path d="M220.197 96.5069H141.7C139.076 96.5069 136.949 94.3799 136.949 91.7559C136.949 89.1319 139.076 87.0049 141.7 87.0049H220.197C222.821 87.0049 224.948 89.1319 224.948 91.7559C224.949 94.3799 222.822 96.5069 220.197 96.5069Z" fill="white"/>
<path d="M274.194 96.5069H237.03C234.406 96.5069 232.279 94.3799 232.279 91.7559C232.279 89.1319 234.406 87.0049 237.03 87.0049H274.194C276.818 87.0049 278.945 89.1319 278.945 91.7559C278.945 94.3799 276.818 96.5069 274.194 96.5069Z" fill="white"/>
<path d="M178.158 159.536H110.313V197.831H178.158V159.536Z" fill="#BCCCFD"/>
<path d="M178.158 112.536H110.313V150.831H178.158V112.536Z" fill="#BCCCFD"/>
<path d="M177.57 207.505H110.904V210.505H177.57V207.505Z" fill="#BCCCFD"/>
<path d="M177.57 217.505H110.904V220.505H177.57V217.505Z" fill="#BCCCFD"/>
<path d="M268.282 207.505H201.616V210.505H268.282V207.505Z" fill="#BCCCFD"/>
<path d="M268.282 217.505H201.616V220.505H268.282V217.505Z" fill="#BCCCFD"/>
<path d="M286.813 234.23H94.0898V82.3379H286.813V234.23ZM96.0898 232.23H284.813V84.3379H96.0898V232.23Z" fill="#516092"/>
<path d="M332.507 211.672H312.941V47.0059H332.507V211.672ZM314.941 209.672H330.507V49.0059H314.941V209.672Z" fill="#516092"/>
<path d="M335.187 202.146H310.264V220.005H335.187V202.146Z" fill="#BCCCFD"/>
<path d="M331.615 192.671H314.282C313.885 192.671 313.525 192.436 313.365 192.071C313.206 191.707 313.278 191.283 313.548 190.991L330.214 172.992L331.682 174.35L316.57 190.67H331.614V192.671H331.615Z" fill="#516092"/>
<path d="M331.615 174.637H314.282C313.885 174.637 313.525 174.402 313.365 174.037C313.206 173.673 313.278 173.249 313.548 172.957L330.214 154.957L331.682 156.315L316.57 172.636H331.614V174.637H331.615Z" fill="#516092"/>
<path d="M331.615 156.603H314.282C313.885 156.603 313.525 156.368 313.365 156.003C313.206 155.639 313.278 155.215 313.548 154.923L330.214 136.923L331.682 138.281L316.57 154.602H331.614V156.603H331.615Z" fill="#516092"/>
<path d="M331.615 138.569H314.282C313.885 138.569 313.525 138.334 313.365 137.969C313.206 137.605 313.278 137.181 313.548 136.889L330.214 118.889L331.682 120.247L316.57 136.568H331.614V138.569H331.615Z" fill="#516092"/>
<path d="M331.615 120.535H314.282C313.885 120.535 313.525 120.299 313.365 119.934C313.206 119.57 313.278 119.146 313.548 118.854L330.214 100.854L331.682 102.212L316.57 118.533H331.614V120.535H331.615Z" fill="#516092"/>
<path d="M331.615 102.501H314.282C313.885 102.501 313.525 102.266 313.365 101.901C313.206 101.537 313.278 101.113 313.548 100.821L330.214 82.8208L331.682 84.1788L316.57 100.5H331.614V102.501H331.615Z" fill="#516092"/>
<path d="M331.615 84.4666H314.282C313.885 84.4666 313.525 84.2316 313.365 83.8666C313.206 83.5026 313.278 83.0786 313.548 82.7866L330.214 64.7866L331.682 66.1446L316.57 82.4656H331.614V84.4666H331.615Z" fill="#516092"/>
<path d="M331.614 66.4324H314.281C313.884 66.4324 313.524 66.1974 313.364 65.8324C313.204 65.4674 313.277 65.0444 313.547 64.7524L330.213 46.7524L331.681 48.1104L316.569 64.4314H331.613V66.4324H331.614Z" fill="#516092"/>
<path d="M332.475 40.0518H300.756V66.7918H332.475V40.0518Z" fill="#ED7445"/>
<path d="M380.141 40.0518H348.422V55.4108H380.141V40.0518Z" fill="#ED7445"/>
<path d="M379.614 42.0044H222.947C222.395 42.0044 221.947 41.5564 221.947 41.0044C221.947 40.4524 222.395 40.0044 222.947 40.0044H379.614C380.166 40.0044 380.614 40.4524 380.614 41.0044C380.614 41.5564 380.166 42.0044 379.614 42.0044Z" fill="#516092"/>
<path d="M231.226 45.6714H230.226V110.671H231.226V45.6714Z" fill="#516092"/>
<path d="M343.687 216.812H301.763V224.672H343.687V216.812Z" fill="#516092"/>
<path d="M316.732 41.7426C316.604 41.7426 316.476 41.6936 316.379 41.5966L308.025 33.2426H231.439L223.585 41.0966C223.39 41.2916 223.073 41.2916 222.878 41.0966C222.683 40.9016 222.683 40.5846 222.878 40.3896L231.024 32.2437H308.438L317.084 40.8896C317.279 41.0846 317.279 41.4016 317.084 41.5966C316.988 41.6936 316.86 41.7426 316.732 41.7426Z" fill="#516092"/>
<path d="M380.282 41.7424C380.102 41.7424 379.928 41.6444 379.839 41.4744L371.479 25.5044H351.205L343.344 40.9694C343.219 41.2154 342.917 41.3114 342.672 41.1884C342.426 41.0634 342.328 40.7624 342.453 40.5164L350.592 24.5044H372.085L380.725 41.0104C380.853 41.2554 380.759 41.5574 380.514 41.6854C380.439 41.7244 380.36 41.7424 380.282 41.7424Z" fill="#516092"/>
<path d="M234.393 45.6704C234.393 47.6954 232.751 49.3374 230.726 49.3374C228.701 49.3374 227.059 47.6954 227.059 45.6704C227.059 43.6454 228.701 42.0034 230.726 42.0034C232.751 42.0044 234.393 43.6454 234.393 45.6704Z" fill="#BCCCFD"/>
<path d="M269.849 109.369L186.115 117.105L190.102 160.256L273.836 152.52L269.849 109.369Z" fill="#BCCCFD"/>
<path d="M252.404 33.2358C252.19 33.2358 251.991 33.0968 251.926 32.8818C251.845 32.6178 251.994 32.3378 252.258 32.2578L326.291 9.68378C326.404 9.64978 326.524 9.65579 326.631 9.70179L361.72 24.5108C361.974 24.6178 362.094 24.9108 361.986 25.1658C361.879 25.4208 361.585 25.5398 361.331 25.4318L326.41 10.6928L252.55 33.2138C252.501 33.2288 252.453 33.2358 252.404 33.2358Z" fill="#516092"/>
<path d="M314.79 41.8097C314.672 41.8097 314.552 41.7887 314.435 41.7437C313.919 41.5477 313.66 40.9707 313.856 40.4537L325.513 9.77971C325.671 9.36471 326.081 9.10171 326.53 9.13871C326.974 9.17571 327.341 9.50072 327.428 9.93772L333.454 39.8537C333.563 40.3947 333.212 40.9217 332.671 41.0317C332.131 41.1367 331.603 40.7897 331.493 40.2487L326.151 13.7287L315.724 41.1647C315.573 41.5637 315.193 41.8097 314.79 41.8097Z" fill="#516092"/>
<path d="M328.463 10.1346C328.463 11.2476 327.561 12.1496 326.448 12.1496C325.335 12.1496 324.433 11.2476 324.433 10.1346C324.433 9.02163 325.335 8.11963 326.448 8.11963C327.561 8.11963 328.463 9.02163 328.463 10.1346Z" fill="#BCCCFD"/>
<path d="M241.863 41.8378C241.753 41.8378 241.642 41.8018 241.549 41.7268L231.73 33.7898V41.2108C231.73 41.4868 231.506 41.7108 231.23 41.7108C230.954 41.7108 230.73 41.4868 230.73 41.2108V32.7428C230.73 32.5498 230.841 32.3748 231.015 32.2918C231.188 32.2088 231.395 32.2318 231.545 32.3548L242.179 40.9498C242.394 41.1228 242.427 41.4378 242.253 41.6528C242.154 41.7748 242.009 41.8378 241.863 41.8378Z" fill="#516092"/>
<path d="M251.36 41.8378C251.25 41.8378 251.139 41.8018 251.046 41.7268L241.226 33.7898V41.2108C241.226 41.4868 241.002 41.7108 240.726 41.7108C240.45 41.7108 240.226 41.4868 240.226 41.2108V32.7428C240.226 32.5498 240.337 32.3748 240.511 32.2918C240.683 32.2088 240.89 32.2318 241.041 32.3548L251.675 40.9498C251.89 41.1228 251.923 41.4378 251.749 41.6528C251.65 41.7748 251.506 41.8378 251.36 41.8378Z" fill="#516092"/>
<path d="M260.855 41.8378C260.745 41.8378 260.634 41.8018 260.541 41.7268L250.721 33.7898V41.2108C250.721 41.4868 250.497 41.7108 250.221 41.7108C249.945 41.7108 249.721 41.4868 249.721 41.2108V32.7428C249.721 32.5498 249.832 32.3748 250.006 32.2918C250.178 32.2088 250.385 32.2318 250.536 32.3548L261.17 40.9498C261.385 41.1228 261.418 41.4378 261.244 41.6528C261.146 41.7748 261.001 41.8378 260.855 41.8378Z" fill="#516092"/>
<path d="M270.351 41.8378C270.241 41.8378 270.13 41.8018 270.037 41.7268L260.218 33.7898V41.2108C260.218 41.4868 259.994 41.7108 259.718 41.7108C259.442 41.7108 259.218 41.4868 259.218 41.2108V32.7428C259.218 32.5498 259.329 32.3748 259.503 32.2918C259.676 32.2088 259.882 32.2318 260.033 32.3548L270.667 40.9498C270.882 41.1228 270.915 41.4378 270.741 41.6528C270.641 41.7748 270.497 41.8378 270.351 41.8378Z" fill="#516092"/>
<path d="M279.846 41.8378C279.736 41.8378 279.625 41.8018 279.532 41.7268L269.712 33.7898V41.2108C269.712 41.4868 269.488 41.7108 269.212 41.7108C268.936 41.7108 268.712 41.4868 268.712 41.2108V32.7428C268.712 32.5498 268.823 32.3748 268.997 32.2918C269.17 32.2088 269.376 32.2318 269.527 32.3548L280.161 40.9498C280.376 41.1228 280.409 41.4378 280.235 41.6528C280.137 41.7748 279.992 41.8378 279.846 41.8378Z" fill="#516092"/>
<path d="M289.341 41.8378C289.231 41.8378 289.12 41.8018 289.027 41.7268L279.207 33.7898V41.2108C279.207 41.4868 278.983 41.7108 278.707 41.7108C278.431 41.7108 278.207 41.4868 278.207 41.2108V32.7428C278.207 32.5498 278.318 32.3748 278.492 32.2918C278.664 32.2088 278.871 32.2318 279.022 32.3548L289.656 40.9498C289.871 41.1228 289.904 41.4378 289.73 41.6528C289.631 41.7748 289.487 41.8378 289.341 41.8378Z" fill="#516092"/>
<path d="M298.836 41.8378C298.726 41.8378 298.615 41.8018 298.522 41.7268L288.702 33.7898V41.2108C288.702 41.4868 288.478 41.7108 288.202 41.7108C287.926 41.7108 287.702 41.4868 287.702 41.2108V32.7428C287.702 32.5498 287.813 32.3748 287.987 32.2918C288.159 32.2088 288.366 32.2318 288.517 32.3548L299.151 40.9498C299.366 41.1228 299.399 41.4378 299.225 41.6528C299.126 41.7748 298.982 41.8378 298.836 41.8378Z" fill="#516092"/>
<path d="M308.332 41.8378C308.222 41.8378 308.111 41.8018 308.018 41.7268L298.198 33.7898V41.2108C298.198 41.4868 297.974 41.7108 297.698 41.7108C297.422 41.7108 297.198 41.4868 297.198 41.2108V32.7428C297.198 32.5498 297.309 32.3748 297.483 32.2918C297.656 32.2088 297.863 32.2318 298.013 32.3548L308.647 40.9498C308.862 41.1228 308.895 41.4378 308.721 41.6528C308.622 41.7748 308.478 41.8378 308.332 41.8378Z" fill="#516092"/>
<path d="M364.466 41.8377C364.324 41.8377 364.183 41.7777 364.084 41.6607L351.331 26.6097V41.2107C351.331 41.4867 351.107 41.7107 350.831 41.7107C350.555 41.7107 350.331 41.4867 350.331 41.2107V25.2467C350.331 25.0367 350.462 24.8497 350.659 24.7777C350.857 24.7047 351.077 24.7627 351.213 24.9237L364.848 41.0147C365.027 41.2247 365 41.5407 364.79 41.7187C364.695 41.7987 364.58 41.8377 364.466 41.8377Z" fill="#516092"/>
<path d="M374.276 41.8375C374.114 41.8375 373.955 41.7585 373.858 41.6135L364.141 26.9095V41.2105C364.141 41.4865 363.917 41.7105 363.641 41.7105C363.365 41.7105 363.141 41.4865 363.141 41.2105V25.2465C363.141 25.0255 363.286 24.8315 363.497 24.7675C363.711 24.7055 363.937 24.7875 364.058 24.9705L374.692 41.0615C374.844 41.2915 374.781 41.6025 374.551 41.7545C374.466 41.8105 374.371 41.8375 374.276 41.8375Z" fill="#516092"/>
<path d="M233.874 112.004C233.874 113.743 232.464 115.152 230.726 115.152C228.987 115.152 227.578 113.742 227.578 112.004C227.578 110.265 228.988 108.856 230.726 108.856C232.464 108.855 233.874 110.265 233.874 112.004Z" fill="#ED7445"/>
<path d="M62.1152 174.839H60.1152V222.838H62.1152V174.839Z" fill="#516092"/>
<path d="M24.1152 174.839H22.1152V222.838H24.1152V174.839Z" fill="#516092"/>
<path d="M67.3342 179.338H17.1152V197.838H67.3342V179.338Z" fill="#E3EBFF"/>
<path d="M67.3346 197.838V180.338L58.1016 197.838H67.3346Z" fill="#ED7445"/>
<path d="M35.6006 197.838H46.3416L56.1036 179.338H45.3616L35.6006 197.838Z" fill="#ED7445"/>
<path d="M22.8612 179.338L17.1152 190.228V197.838H23.8412L33.6022 179.338H22.8612Z" fill="#ED7445"/>
<path d="M69.6152 208.839H14.6152V210.839H69.6152V208.839Z" fill="#516092"/>
<path d="M410.114 174.839H408.114V222.838H410.114V174.839Z" fill="#516092"/>
<path d="M372.114 174.839H370.114V222.838H372.114V174.839Z" fill="#516092"/>
<path d="M415.333 179.338H365.114V197.838H415.333V179.338Z" fill="#E3EBFF"/>
<path d="M415.334 197.838V180.338L406.1 197.838H415.334Z" fill="#ED7445"/>
<path d="M383.6 197.838H394.341L404.102 179.338H393.361L383.6 197.838Z" fill="#ED7445"/>
<path d="M370.86 179.338L365.114 190.228V197.838H371.84L381.601 179.338H370.86Z" fill="#ED7445"/>
<path d="M417.614 208.839H362.614V210.839H417.614V208.839Z" fill="#516092"/>
<path d="M91.4964 236.666H68.7154C67.9654 236.666 67.3574 237.274 67.3574 238.025C67.3574 238.776 67.9654 239.383 68.7154 239.383H91.4964C92.2464 239.383 92.8544 238.775 92.8544 238.025C92.8544 237.275 92.2464 236.666 91.4964 236.666Z" fill="#ED7445"/>
<path d="M81.9557 217.299C81.8487 217.006 81.5707 216.811 81.2587 216.811H78.6477C78.3327 216.811 78.0517 217.01 77.9477 217.308L70.5967 238.338H89.6147L81.9557 217.299Z" fill="#ED7445"/>
<path d="M76.5878 221.201L75.4268 224.522H84.5858L83.3758 221.201H76.5878Z" fill="#ECEFF1"/>
<path d="M73.6288 229.665L72.4678 232.987H87.6678L86.4578 229.665H73.6288Z" fill="#ECEFF1"/>
<path opacity="0.5" d="M88.0916 59.6179C86.4236 59.6179 84.8815 60.1479 83.6145 61.0419V58.8369C83.6145 52.4859 78.4655 47.3369 72.1145 47.3369C65.7635 47.3369 60.6145 52.4859 60.6145 58.8369V63.1829C59.5735 62.1949 58.1696 61.5849 56.6206 61.5849C53.4126 61.5849 50.8105 64.1859 50.8105 67.3949H95.8675C95.8685 63.0999 92.3866 59.6179 88.0916 59.6179Z" fill="#D4E0FF"/>
<path opacity="0.5" d="M180.954 28.2789C179.739 28.2789 178.617 28.6649 177.695 29.3159V27.7099C177.695 23.0859 173.947 19.3379 169.323 19.3379C164.699 19.3379 160.951 23.0869 160.951 27.7099V30.8739C160.193 30.1549 159.171 29.7109 158.043 29.7109C155.707 29.7109 153.812 31.6049 153.812 33.9409H186.616C186.616 30.8139 184.081 28.2789 180.954 28.2789Z" fill="#D4E0FF"/>
</svg>
